<?xml version="1.0"?>
<VTKFile type="UnstructuredGrid" version="0.1" byte_order="LittleEndian">
  <UnstructuredGrid>
    <Piece NumberOfPoints="247" NumberOfCells="716">
      <Points>
        <DataArray type="Float64" NumberOfComponents="3" format="ascii">
          0.222326 0.250000 0.125795
          0.750000 0.062500 0.250000
          0.0 0.250000 0.187500
          0.487500 0.250000 0.064952
          0.225127 0.125414 0.250000
          0.750000 0.125145 0.124994
          0.055902 0.157696 0.250000
          0.0 0.045435 0.045435
          0.200486 0.160114 0.079061
          0.107434 0.052550 0.250000
          0.048445 0.041752 0.250000
          0.300000 0.0 0.0
          0.750000 0.204565 0.045435
          0.492208 0.090447 0.160736
          0.262986 0.062897 0.0
          0.690208 0.156287 0.0
          0.0 0.250000 0.0
          0.0 0.187500 0.250000
          0.750000 0.250000 0.125000
          0.300389 0.124973 0.250000
          0.225295 0.073164 0.176794
          0.487483 0.185740 0.0
          0.046839 0.0 0.206122
          0.051334 0.0 0.156287
          0.150000 0.250000 0.250000
          0.412986 0.062897 0.250000
          0.154080 0.0 0.122452
          0.264340 0.187353 0.250000
          0.412500 0.124737 0.125171
          0.187781 0.250000 0.064194
          0.412749 0.062271 0.0
          0.750000 0.154976 0.052371
          0.690208 0.0 0.093713
          0.337903 0.161908 0.161908
          0.616234 0.123027 0.250000
          0.0 0.093990 0.051721
          0.526325 0.123676 0.250000
          0.187034 0.188961 0.0
          0.0 0.199960 0.093750
          0.375000 0.0 0.125001
          0.701564 0.250000 0.041775
          0.701564 0.0 0.041775
          0.375000 0.0 0.250000
          0.640979 0.0 0.197508
          0.225000 0.0 0.0
          0.750000 0.0 0.187500
          0.412500 0.0 0.185048
          0.376492 0.123623 0.0
          0.450000 0.0 0.125000
          0.492017 0.159761 0.089965
          0.337500 0.0 0.064952
          0.300000 0.0 0.250000
          0.075000 0.250000 0.250000
          0.0 0.204565 0.204565
          0.0 0.187500 0.0
          0.300000 0.0 0.125004
          0.048008 0.208527 0.0
          0.450000 0.250000 0.250000
          0.085027 0.174008 0.173878
          0.525000 0.250000 0.125000
          0.750000 0.045435 0.204565
          0.750000 0.0 0.0
          0.750000 0.154976 0.197629
          0.056008 0.250000 0.157653
          0.134041 0.126782 0.250000
          0.693992 0.250000 0.157653
          0.651692 0.088082 0.162051
          0.525000 0.250000 0.0
          0.563080 0.0 0.188759
          0.750000 0.0 0.062500
          0.675000 0.0 0.0
          0.0 0.197629 0.154976
          0.642612 0.250000 0.052662
          0.750000 0.187500 0.0
          0.488052 0.185651 0.250000
          0.188270 0.063552 0.250000
          0.563080 0.061241 0.0
          0.525000 0.0 0.0
          0.076085 0.076018 0.172130
          0.701994 0.0 0.208532
          0.487500 0.0 0.185048
          0.525000 0.250000 0.250000
          0.439274 0.176980 0.176842
          0.487500 0.250000 0.185048
          0.225000 0.250000 0.250000
          0.048006 0.250000 0.208532
          0.412500 0.250000 0.185048
          0.0 0.0 0.0
          0.186920 0.250000 0.188759
          0.693992 0.0 0.157653
          0.134350 0.126606 0.0
          0.187500 0.0 0.060044
          0.0 0.0 0.250000
          0.109021 0.250000 0.197508
          0.488300 0.061975 0.250000
          0.300575 0.123934 0.0
          0.094174 0.0 0.124197
          0.300000 0.250000 0.250000
          0.0 0.250000 0.250000
          0.337558 0.063442 0.250000
          0.600000 0.250000 0.0
          0.048436 0.250000 0.041775
          0.048458 0.041713 0.0
          0.107388 0.250000 0.052662
          0.693434 0.091694 0.250000
          0.642612 0.197338 0.0
          0.225000 0.125000 0.0
          0.450000 0.0 0.250000
          0.0 0.093750 0.199960
          0.750000 0.125000 0.250000
          0.0 0.0 0.062500
          0.640979 0.052492 0.0
          0.750000 0.199960 0.156250
          0.0 0.250000 0.125000
          0.225000 0.0 0.250000
          0.517065 0.171289 0.171171
          0.627286 0.168640 0.171781
          0.375000 0.250000 0.0
          0.107863 0.0 0.186822
          0.413272 0.186359 0.250000
          0.0 0.124994 0.125145
          0.0 0.125000 0.0
          0.375306 0.124447 0.250000
          0.134253 0.250000 0.126815
          0.078044 0.073731 0.076323
          0.750000 0.250000 0.0
          0.450522 0.123938 0.250000
          0.394001 0.073056 0.177373
          0.0 0.155962 0.052065
          0.750000 0.0 0.250000
          0.562219 0.250000 0.064194
          0.263180 0.186258 0.0
          0.337967 0.062121 0.0
          0.525000 0.0 0.250000
          0.600000 0.0 0.250000
          0.640979 0.250000 0.197508
          0.702019 0.041259 0.250000
          0.627748 0.078640 0.081107
          0.615747 0.250000 0.126815
          0.750000 0.093750 0.199960
          0.262563 0.0 0.185902
          0.564965 0.061342 0.250000
          0.516252 0.078751 0.079887
          0.561730 0.186311 0.250000
          0.750000 0.250000 0.062500
          0.0 0.0 0.187500
          0.319084 0.080338 0.168849
          0.450191 0.124863 0.0
          0.056020 0.157628 0.0
          0.750000 0.250000 0.187500
          0.108340 0.197900 0.250000
          0.262500 0.250000 0.185048
          0.191945 0.163807 0.163779
          0.412500 0.185866 0.0
          0.150000 0.0 0.250000
          0.0 0.204565 0.045435
          0.0 0.050040 0.093750
          0.0 0.062500 0.0
          0.357419 0.169874 0.080566
          0.750000 0.204565 0.204565
          0.0 0.250000 0.062500
          0.750000 0.052065 0.155962
          0.375000 0.0 0.0
          0.0 0.062500 0.250000
          0.750000 0.187500 0.250000
          0.750000 0.250000 0.250000
          0.438715 0.073108 0.072816
          0.750000 0.045435 0.045435
          0.075000 0.0 0.0
          0.047848 0.208619 0.250000
          0.690208 0.250000 0.093713
          0.262739 0.0 0.062257
          0.0 0.0 0.125000
          0.615747 0.123185 0.0
          0.675000 0.0 0.250000
          0.150000 0.250000 0.0
          0.600000 0.250000 0.250000
          0.262500 0.250000 0.064952
          0.571726 0.125000 0.125000
          0.701994 0.041468 0.0
          0.450000 0.0 0.0
          0.562219 0.185806 0.0
          0.226434 0.0 0.123544
          0.075000 0.250000 0.0
          0.690209 0.156287 0.250000
          0.527672 0.124321 0.0
          0.085211 0.174145 0.075067
          0.195411 0.077378 0.098880
          0.337500 0.250000 0.185048
          0.487500 0.064952 0.0
          0.750000 0.062500 0.0
          0.299554 0.250000 0.125132
          0.562219 0.0 0.064194
          0.059791 0.093713 0.250000
          0.300000 0.250000 0.0
          0.750000 0.0 0.125000
          0.0 0.156250 0.199960
          0.075000 0.0 0.250000
          0.693992 0.092347 0.0
          0.675000 0.250000 0.0
          0.282209 0.177099 0.072945
          0.701994 0.250000 0.208532
          0.701564 0.208237 0.250000
          0.0 0.052371 0.154976
          0.262500 0.064134 0.250000
          0.487500 0.0 0.064952
          0.660837 0.155611 0.095070
          0.108208 0.0 0.061785
          0.337500 0.185048 0.250000
          0.675000 0.250000 0.250000
          0.188352 0.062530 0.0
          0.046518 0.0 0.043584
          0.185505 0.188364 0.250000
          0.337500 0.0 0.185048
          0.525000 0.0 0.125000
          0.750000 0.051721 0.093990
          0.338293 0.185779 0.0
          0.563080 0.250000 0.188759
          0.750000 0.093750 0.050040
          0.615747 0.0 0.126815
          0.109021 0.197508 0.0
          0.124137 0.120556 0.123656
          0.263203 0.125146 0.124969
          0.412500 0.250000 0.064952
          0.450000 0.250000 0.125000
          0.750000 0.125000 0.0
          0.337803 0.088450 0.087365
          0.225000 0.250000 0.0
          0.642612 0.0 0.052662
          0.450000 0.250000 0.0
          0.187878 0.0 0.185266
          0.412500 0.0 0.064952
          0.375000 0.250000 0.125000
          0.0 0.125000 0.250000
          0.107499 0.052350 0.0
          0.642612 0.197396 0.250000
          0.059792 0.093713 0.0
          0.701564 0.208225 0.0
          0.150000 0.0 0.0
          0.0 0.045435 0.204565
          0.641660 0.052100 0.250000
          0.049382 0.0 0.093637
          0.337500 0.250000 0.064952
          0.059792 0.250000 0.093713
          0.750000 0.199960 0.093750
          0.375000 0.250000 0.250000
          0.600000 0.0 0.0
        </DataArray>
      </Points>
      <Cells>
        <DataArray type="Int32" Name="connectivity" format="ascii">
          221 78 230 20 201 159 202 116 167 179 41 137 130 178 181 206 14 222 171 226 14 171 222 187 230 221 26 78 230 26 221 20 64 78 221 20 75 230 78 20 151 27 222 33 27 151 222 152 26 187 221 20 68 178 141 66 141 178 68 13 223 153 49 158 224 28 223 49 171 182 55 222 28 49 153 158 182 222 171 187 223 49 28 158 55 171 222 226 64 75 78 20 153 28 147 49 95 222 14 226 223 28 224 158 181 178 130 49 230 26 118 78 118 75 230 78 147 28 153 158 173 181 178 206 27 19 222 33 202 159 184 116 151 222 191 33 181 105 72 206 9 75 118 78 221 152 64 20 130 181 72 206 138 178 130 206 201 65 159 116 198 179 167 137 206 66 5 116 40 237 12 206 55 222 182 20 5 66 206 137 62 5 66 116 34 141 178 66 173 178 142 137 219 178 68 66 178 115 36 116 5 215 66 137 79 136 60 66 14 222 106 187 219 142 178 137 0 222 151 152 14 95 106 222 151 0 191 222 224 28 49 82 141 36 178 13 138 115 178 116 232 223 224 158 68 178 214 13 112 62 159 116 147 153 47 158 222 187 182 20 55 146 222 20 27 19 4 222 62 184 159 116 147 49 28 166 222 146 19 20 153 21 3 49 3 223 153 49 185 178 181 49 222 226 95 200 234 207 187 124 27 222 4 152 96 26 221 78 215 218 167 137 191 222 0 200 130 178 59 49 55 226 222 146 191 33 222 200 222 33 19 146 26 96 221 124 173 206 178 137 64 75 9 78 123 8 221 186 106 222 95 200 123 152 221 8 65 112 159 116 90 187 221 124 232 33 158 82 173 178 185 142 198 167 218 137 90 234 187 124 91 234 207 187 47 158 226 166 226 158 28 166 28 158 33 82 138 178 206 116 173 105 181 206 141 240 43 66 173 142 76 137 36 34 141 178 185 173 181 178 4 222 19 20 96 78 221 124 62 66 184 116 34 178 36 116 39 166 226 127 208 188 86 33 215 32 66 137 132 231 30 226 43 68 141 66 214 13 178 142 68 219 214 178 33 82 122 127 208 86 119 33 185 178 49 142 214 178 219 142 132 50 231 226 94 13 80 127 59 49 178 115 132 14 171 226 34 66 178 116 132 171 50 226 59 178 138 115 219 192 142 137 40 72 237 206 138 130 72 206 36 115 143 116 91 210 234 187 36 178 13 115 150 93 152 58 80 46 25 127 23 96 241 78 37 29 220 8 178 66 219 137 138 59 130 178 231 30 226 166 94 80 25 127 86 119 33 82 106 187 222 8 221 187 26 124 48 13 166 127 90 221 187 8 201 202 235 116 138 217 115 116 226 166 28 127 179 228 41 137 28 82 33 127 151 188 27 33 123 221 152 58 126 82 13 127 237 15 12 206 27 188 208 33 222 152 0 8 120 58 221 186 210 90 234 187 0 222 8 200 29 8 123 186 130 3 21 49 150 93 212 152 4 152 222 20 207 26 187 124 79 240 136 66 65 206 112 116 218 206 198 137 221 124 120 186 106 8 222 200 23 241 203 78 221 187 152 20 60 136 104 66 221 58 123 186 28 166 13 127 120 78 221 58 80 94 68 13 89 79 60 66 173 185 76 142 90 221 8 186 212 93 88 152 64 152 221 58 39 48 166 127 13 82 28 127 14 210 171 187 224 223 3 49 120 221 78 124 141 68 94 13 96 118 26 78 96 241 78 124 126 122 82 127 21 181 130 49 119 122 33 82 39 231 226 166 90 8 220 186 153 147 21 49 232 86 33 82 34 36 143 116 214 219 192 142 27 88 151 152 71 58 120 186 188 208 86 245 229 153 21 3 229 153 3 223 221 78 64 58 62 139 184 66 208 119 86 245 30 47 226 166 91 171 210 187 103 29 123 186 5 215 161 66 123 152 93 58 72 105 237 206 201 235 135 116 231 30 162 132 59 138 217 115 179 111 228 137 50 231 162 132 80 107 25 46 90 187 210 8 19 146 204 20 243 58 71 186 150 152 64 58 90 124 221 186 128 120 124 186 212 88 27 152 55 140 146 20 224 49 115 82 48 13 142 166 184 139 104 66 62 5 139 66 14 11 132 171 50 132 11 171 25 94 107 80 177 37 131 8 106 210 187 8 55 50 171 226 4 64 152 20 126 115 13 82 15 31 12 206 90 37 220 8 38 71 120 186 147 142 49 166 177 8 131 200 49 13 28 166 50 39 231 226 65 201 135 116 43 240 79 66 208 119 122 33 3 21 67 130 132 30 47 226 232 86 188 33 39 226 146 127 28 13 49 82 198 111 179 137 43 219 68 66 132 95 14 226 204 51 140 146 26 207 96 124 188 151 27 97 55 182 140 20 49 142 13 166 188 27 208 97 131 227 37 177 120 196 78 58 38 243 71 186 76 142 192 137 34 240 141 66 122 146 33 127 151 191 188 33 207 26 91 187 235 202 184 116 150 212 64 152 84 151 27 88 198 218 31 206 177 29 37 8 226 158 95 200 153 223 117 158 32 41 228 137 222 33 226 158 31 15 198 206 13 115 49 82 140 51 213 146 123 88 93 152 204 99 51 146 191 158 33 200 60 161 89 66 128 120 35 124 128 35 236 124 28 33 226 146 112 170 244 206 19 33 122 146 55 39 226 146 27 208 19 33 217 143 115 116 60 104 139 66 123 0 152 8 153 117 216 158 223 242 117 158 105 15 237 206 198 206 173 137 99 213 51 146 47 95 226 158 72 40 170 206 63 71 243 58 120 78 203 124 14 210 44 171 232 33 191 158 112 65 170 206 80 94 133 68 4 75 64 20 130 21 67 181 111 76 246 137 27 212 84 88 227 37 177 29 228 111 246 137 217 135 176 116 117 242 216 158 161 60 139 66 135 235 176 116 181 100 72 105 138 206 65 116 222 158 226 200 33 158 222 200 106 90 210 8 76 192 246 137 100 72 130 181 152 187 222 20 91 44 210 171 246 192 228 137 210 14 106 187 169 53 85 58 68 94 133 141 28 146 226 127 238 234 207 91 33 146 28 127 185 49 147 142 143 217 176 116 126 74 115 82 31 244 12 206 204 146 140 20 152 187 221 8 120 203 156 124 224 49 59 115 143 176 235 116 224 115 83 82 56 101 155 186 184 66 34 116 108 120 196 78 48 13 214 142 36 13 126 115 243 123 58 186 236 124 90 186 219 66 32 137 48 142 205 166 24 212 150 93 173 198 15 206 31 218 5 206 91 238 234 210 222 187 152 8 189 142 147 166 134 43 141 240 206 66 178 137 178 66 206 116 189 205 77 142 104 136 240 66 226 33 28 158 226 33 222 146 4 19 204 20 212 24 88 93 49 13 178 115 123 29 0 8 178 13 49 142 39 48 231 166 139 5 161 66 112 244 5 206 74 83 81 115 232 224 86 82 68 134 43 141 138 170 65 206 43 79 89 66 0 8 177 200 141 94 36 13 126 122 119 82 68 214 80 13 55 39 50 226 189 77 76 142 21 185 181 49 205 192 77 142 47 216 95 158 216 95 158 200 216 242 194 200 42 213 99 127 99 19 122 146 19 208 122 33 99 146 122 127 83 217 81 115 130 59 3 49 22 23 239 78 39 146 213 127 55 213 39 146 191 232 188 33 10 22 239 78 169 85 150 58 242 232 191 158 242 158 191 200 132 47 95 226 81 143 74 115 184 104 34 66 76 77 192 142 39 46 48 127 185 147 189 142 32 219 89 66 74 36 126 115 211 102 7 124 63 243 123 58 10 9 22 78 47 30 147 166 241 23 203 172 182 171 91 187 83 74 57 82 205 189 180 166 224 59 83 115 241 211 7 124 42 46 213 127 217 143 81 115 88 0 151 152 242 177 194 200 48 214 205 142 213 146 99 127 236 90 148 186 216 158 242 200 27 4 212 152 122 126 25 127 169 6 53 58 173 15 105 206 85 53 63 58 42 99 25 127 216 194 131 200 101 56 103 186 211 234 102 124 147 185 21 49 0 29 177 8 148 56 155 186 128 38 120 186 80 214 48 13 196 120 71 58 3 59 224 49 180 231 205 166 205 142 189 166 138 72 170 206 119 57 74 82 83 115 74 82 204 140 114 20 83 57 86 82 189 30 180 166 99 204 19 146 10 239 193 78 191 0 177 200 102 236 7 124 126 36 94 13 55 140 213 146 216 47 153 158 42 25 46 127 106 131 8 200 244 31 5 206 88 123 0 152 30 231 180 166 119 86 57 82 194 177 131 200 4 64 212 152 232 242 223 158 239 23 203 78 93 150 85 58 230 114 140 20 22 9 118 78 106 95 131 200 76 111 173 137 204 114 75 20 198 173 111 137 220 103 56 186 71 63 53 58 203 156 241 172 211 207 234 124 156 35 120 124 241 7 156 124 240 174 79 136 138 65 135 116 104 240 34 66 217 138 135 116 102 211 168 234 150 169 52 85 230 75 114 20 128 148 155 186 43 89 219 66 53 6 196 58 193 64 9 78 118 96 23 78 39 213 46 127 139 184 109 62 90 106 37 8 22 239 23 145 216 131 95 200 234 90 236 124 99 122 25 127 7 236 35 124 108 203 120 78 192 219 228 137 143 235 34 116 41 179 70 228 108 193 239 78 89 161 195 215 202 209 201 235 242 191 177 200 37 106 131 8 197 22 10 9 40 72 199 237 126 119 74 82 184 139 109 104 32 89 195 215 231 48 205 166 22 118 23 78 198 225 31 218 31 15 225 198 69 215 167 41 202 159 164 184 53 196 71 58 86 224 83 82 12 237 73 15 243 103 123 186 241 96 207 124 196 233 108 6 110 211 7 241 193 108 233 6 38 128 155 186 91 26 182 187 228 219 32 137 235 184 34 116 189 147 30 166 93 63 123 58 101 56 183 103 230 140 182 20 168 211 207 234 6 150 64 58 144 40 12 244 76 185 189 142 180 189 205 77 245 188 208 97 155 160 38 101 79 43 174 240 207 211 241 124 67 229 21 3 216 117 194 242 153 229 117 223 74 83 57 81 93 150 52 85 90 220 148 186 204 51 114 140 86 119 57 245 99 42 51 213 194 227 131 177 107 42 25 46 104 60 1 136 30 162 180 231 203 23 239 145 162 50 132 11 217 83 59 115 149 201 65 159 79 60 45 89 167 198 190 179 56 155 54 148 179 70 228 111 22 197 118 9 36 74 143 115 209 135 201 235 169 150 6 58 94 133 107 80 192 205 214 142 93 85 63 58 97 151 27 84 44 11 14 171 10 193 9 78 159 62 164 184 15 73 12 31 220 56 148 186 105 199 72 237 6 53 17 169 101 103 243 186 56 220 183 103 215 69 32 41 236 102 234 124 7 156 110 241 7 35 156 124 130 67 100 181 40 144 170 244 243 38 160 101 203 108 239 78 75 4 204 20 154 114 230 75 161 45 60 89 148 155 54 128 76 77 246 192 85 53 2 63 1 139 60 104 112 149 65 159 176 81 217 143 218 198 190 167 24 84 212 88 133 134 68 141 37 227 175 29 238 91 44 210 41 167 61 179 165 201 159 202 169 53 98 85 87 211 102 7 237 125 40 12 129 60 79 136 17 196 53 6 23 203 172 145 22 239 92 10 16 155 56 101 53 71 2 63 207 168 234 238 109 164 62 184 225 73 15 31 201 149 165 159 167 190 61 179 45 129 60 79 32 195 69 215 157 35 236 121 60 129 1 136 87 211 7 110 155 54 16 56 118 197 154 9 22 92 239 145 7 102 87 157 164 165 159 202 61 69 167 41 156 110 241 172 237 73 125 12 125 144 40 12 102 211 87 168 52 169 98 85 108 233 163 193 61 41 179 70 201 165 209 202 18 170 144 244 160 113 38 243 239 163 92 10 155 16 160 101 79 174 129 136 125 40 199 237 53 98 17 169 195 45 161 89 128 54 148 121 43 134 174 240 52 24 150 93 1 109 139 104 70 228 111 246 209 176 135 235 149 65 18 112 22 92 197 10 198 190 225 218 199 72 100 105 56 183 16 101 2 98 53 85 196 17 233 6 220 175 183 103 71 113 2 63 158 82 224 232 224 82 158 28 116 5 112 62 116 112 5 206 137 5 218 206 137 218 5 215 166 158 147 47 166 147 158 28 75 118 154 9 75 154 118 230 186 29 220 103 186 220 29 8 127 80 48 13 127 48 80 46 127 94 126 25 127 126 94 13 186 236 128 148 186 128 236 124 220 29 175 103 175 29 220 37 20 26 182 230 20 182 26 187 124 203 241 78 124 241 203 156 128 236 121 148 128 121 236 35 89 215 66 161 66 215 89 32 112 170 18 244 112 18 170 65 58 78 6 196 108 78 6 193 108 6 78 196 40 244 206 12 206 244 40 170 101 38 186 243 101 186 38 155 239 193 163 10 163 193 239 108 243 71 113 38 243 113 71 63 215 41 137 167 137 41 215 32 7 236 157 35 157 236 7 102 78 6 64 58 78 64 6 193 
        </DataArray>
        <DataArray type="Int32" Name="offsets" format="ascii">
          4 8 12 16 20 24 28 32 36 40 44 48 52 56 60 64 68 72 76 80 84 88 92 96 100 104 108 112 116 120 124 128 132 136 140 144 148 152 156 160 164 168 172 176 180 184 188 192 196 200 204 208 212 216 220 224 228 232 236 240 244 248 252 256 260 264 268 272 276 280 284 288 292 296 300 304 308 312 316 320 324 328 332 336 340 344 348 352 356 360 364 368 372 376 380 384 388 392 396 400 404 408 412 416 420 424 428 432 436 440 444 448 452 456 460 464 468 472 476 480 484 488 492 496 500 504 508 512 516 520 524 528 532 536 540 544 548 552 556 560 564 568 572 576 580 584 588 592 596 600 604 608 612 616 620 624 628 632 636 640 644 648 652 656 660 664 668 672 676 680 684 688 692 696 700 704 708 712 716 720 724 728 732 736 740 744 748 752 756 760 764 768 772 776 780 784 788 792 796 800 804 808 812 816 820 824 828 832 836 840 844 848 852 856 860 864 868 872 876 880 884 888 892 896 900 904 908 912 916 920 924 928 932 936 940 944 948 952 956 960 964 968 972 976 980 984 988 992 996 1000 1004 1008 1012 1016 1020 1024 1028 1032 1036 1040 1044 1048 1052 1056 1060 1064 1068 1072 1076 1080 1084 1088 1092 1096 1100 1104 1108 1112 1116 1120 1124 1128 1132 1136 1140 1144 1148 1152 1156 1160 1164 1168 1172 1176 1180 1184 1188 1192 1196 1200 1204 1208 1212 1216 1220 1224 1228 1232 1236 1240 1244 1248 1252 1256 1260 1264 1268 1272 1276 1280 1284 1288 1292 1296 1300 1304 1308 1312 1316 1320 1324 1328 1332 1336 1340 1344 1348 1352 1356 1360 1364 1368 1372 1376 1380 1384 1388 1392 1396 1400 1404 1408 1412 1416 1420 1424 1428 1432 1436 1440 1444 1448 1452 1456 1460 1464 1468 1472 1476 1480 1484 1488 1492 1496 1500 1504 1508 1512 1516 1520 1524 1528 1532 1536 1540 1544 1548 1552 1556 1560 1564 1568 1572 1576 1580 1584 1588 1592 1596 1600 1604 1608 1612 1616 1620 1624 1628 1632 1636 1640 1644 1648 1652 1656 1660 1664 1668 1672 1676 1680 1684 1688 1692 1696 1700 1704 1708 1712 1716 1720 1724 1728 1732 1736 1740 1744 1748 1752 1756 1760 1764 1768 1772 1776 1780 1784 1788 1792 1796 1800 1804 1808 1812 1816 1820 1824 1828 1832 1836 1840 1844 1848 1852 1856 1860 1864 1868 1872 1876 1880 1884 1888 1892 1896 1900 1904 1908 1912 1916 1920 1924 1928 1932 1936 1940 1944 1948 1952 1956 1960 1964 1968 1972 1976 1980 1984 1988 1992 1996 2000 2004 2008 2012 2016 2020 2024 2028 2032 2036 2040 2044 2048 2052 2056 2060 2064 2068 2072 2076 2080 2084 2088 2092 2096 2100 2104 2108 2112 2116 2120 2124 2128 2132 2136 2140 2144 2148 2152 2156 2160 2164 2168 2172 2176 2180 2184 2188 2192 2196 2200 2204 2208 2212 2216 2220 2224 2228 2232 2236 2240 2244 2248 2252 2256 2260 2264 2268 2272 2276 2280 2284 2288 2292 2296 2300 2304 2308 2312 2316 2320 2324 2328 2332 2336 2340 2344 2348 2352 2356 2360 2364 2368 2372 2376 2380 2384 2388 2392 2396 2400 2404 2408 2412 2416 2420 2424 2428 2432 2436 2440 2444 2448 2452 2456 2460 2464 2468 2472 2476 2480 2484 2488 2492 2496 2500 2504 2508 2512 2516 2520 2524 2528 2532 2536 2540 2544 2548 2552 2556 2560 2564 2568 2572 2576 2580 2584 2588 2592 2596 2600 2604 2608 2612 2616 2620 2624 2628 2632 2636 2640 2644 2648 2652 2656 2660 2664 2668 2672 2676 2680 2684 2688 2692 2696 2700 2704 2708 2712 2716 2720 2724 2728 2732 2736 2740 2744 2748 2752 2756 2760 2764 2768 2772 2776 2780 2784 2788 2792 2796 2800 2804 2808 2812 2816 2820 2824 2828 2832 2836 2840 2844 2848 2852 2856 2860 2864 
        </DataArray>
        <DataArray type="UInt8" Name="types" format="ascii">
          10 10 10 10 10 10 10 10 10 10 10 10 10 10 10 10 10 10 10 10 10 10 10 10 10 10 10 10 10 10 10 10 10 10 10 10 10 10 10 10 10 10 10 10 10 10 10 10 10 10 10 10 10 10 10 10 10 10 10 10 10 10 10 10 10 10 10 10 10 10 10 10 10 10 10 10 10 10 10 10 10 10 10 10 10 10 10 10 10 10 10 10 10 10 10 10 10 10 10 10 10 10 10 10 10 10 10 10 10 10 10 10 10 10 10 10 10 10 10 10 10 10 10 10 10 10 10 10 10 10 10 10 10 10 10 10 10 10 10 10 10 10 10 10 10 10 10 10 10 10 10 10 10 10 10 10 10 10 10 10 10 10 10 10 10 10 10 10 10 10 10 10 10 10 10 10 10 10 10 10 10 10 10 10 10 10 10 10 10 10 10 10 10 10 10 10 10 10 10 10 10 10 10 10 10 10 10 10 10 10 10 10 10 10 10 10 10 10 10 10 10 10 10 10 10 10 10 10 10 10 10 10 10 10 10 10 10 10 10 10 10 10 10 10 10 10 10 10 10 10 10 10 10 10 10 10 10 10 10 10 10 10 10 10 10 10 10 10 10 10 10 10 10 10 10 10 10 10 10 10 10 10 10 10 10 10 10 10 10 10 10 10 10 10 10 10 10 10 10 10 10 10 10 10 10 10 10 10 10 10 10 10 10 10 10 10 10 10 10 10 10 10 10 10 10 10 10 10 10 10 10 10 10 10 10 10 10 10 10 10 10 10 10 10 10 10 10 10 10 10 10 10 10 10 10 10 10 10 10 10 10 10 10 10 10 10 10 10 10 10 10 10 10 10 10 10 10 10 10 10 10 10 10 10 10 10 10 10 10 10 10 10 10 10 10 10 10 10 10 10 10 10 10 10 10 10 10 10 10 10 10 10 10 10 10 10 10 10 10 10 10 10 10 10 10 10 10 10 10 10 10 10 10 10 10 10 10 10 10 10 10 10 10 10 10 10 10 10 10 10 10 10 10 10 10 10 10 10 10 10 10 10 10 10 10 10 10 10 10 10 10 10 10 10 10 10 10 10 10 10 10 10 10 10 10 10 10 10 10 10 10 10 10 10 10 10 10 10 10 10 10 10 10 10 10 10 10 10 10 10 10 10 10 10 10 10 10 10 10 10 10 10 10 10 10 10 10 10 10 10 10 10 10 10 10 10 10 10 10 10 10 10 10 10 10 10 10 10 10 10 10 10 10 10 10 10 10 10 10 10 10 10 10 10 10 10 10 10 10 10 10 10 10 10 10 10 10 10 10 10 10 10 10 10 10 10 10 10 10 10 10 10 10 10 10 10 10 10 10 10 10 10 10 10 10 10 10 10 10 10 10 10 10 10 10 10 10 10 10 10 10 10 10 10 10 10 10 10 10 10 10 10 10 10 10 10 10 10 10 10 10 10 10 10 10 10 10 10 10 10 10 10 10 10 10 10 10 10 10 10 10 10 10 10 10 10 10 10 10 10 10 10 10 10 10 10 10 10 10 10 10 10 10 10 10 10 10 10 10 10 10 10 10 10 10 10 10 10 10 10 10 10 10 10 10 10 10 10 10 10 10 10 10 10 10 10 
        </DataArray>
      </Cells>
      <PointData Scalars="value">
        <DataArray type="Float64" Name="value" format="ascii">
          296.634718 298.680349 300.000000 297.570383 296.674543 297.355034 298.321357 300.000000 297.100980 298.609762 299.289032 300.000000 298.650917 296.413656 300.000000 300.000000 300.000000 300.000000 297.858585 296.371142 297.187542 300.000000 300.000000 300.000000 297.445433 297.529838 300.000000 296.063492 295.908739 297.849613 300.000000 298.404700 300.000000 295.443613 296.641026 300.000000 296.357390 300.000000 300.000000 300.000000 298.642470 300.000000 300.000000 300.000000 300.000000 300.000000 300.000000 300.000000 300.000000 296.561233 300.000000 300.000000 298.414356 300.000000 300.000000 300.000000 300.000000 296.316685 297.247815 296.387871 298.652521 300.000000 297.104234 298.384705 297.197379 296.853150 296.745942 300.000000 300.000000 300.000000 300.000000 300.000000 298.052446 300.000000 295.940334 297.928745 300.000000 300.000000 297.994140 300.000000 300.000000 296.516526 295.260290 295.968471 296.838247 298.629429 295.899734 300.000000 296.541793 300.000000 300.000000 300.000000 300.000000 297.393018 297.667003 300.000000 300.000000 296.547392 300.000000 297.663335 300.000000 299.219623 300.000000 298.581924 297.623739 300.000000 300.000000 300.000000 300.000000 297.851012 300.000000 300.000000 297.098408 300.000000 300.000000 295.401384 295.707499 300.000000 300.000000 295.905905 300.000000 300.000000 296.272163 297.180586 298.387718 300.000000 296.291766 296.763351 300.000000 300.000000 297.629759 300.000000 300.000000 300.000000 300.000000 296.452726 298.740021 297.728901 296.539880 297.729630 300.000000 297.736079 297.565586 296.110145 298.655289 300.000000 296.761078 300.000000 300.000000 297.581478 297.407807 296.145714 295.925076 300.000000 300.000000 300.000000 300.000000 300.000000 296.891513 297.129655 300.000000 298.452198 300.000000 300.000000 297.557959 297.779217 297.850007 299.222138 300.000000 298.659239 297.487087 300.000000 300.000000 300.000000 300.000000 300.000000 296.675697 297.676130 295.792273 300.000000 300.000000 300.000000 300.000000 300.000000 296.834020 300.000000 297.899022 297.483385 295.985845 300.000000 300.000000 296.428506 300.000000 298.581864 300.000000 300.000000 300.000000 300.000000 300.000000 300.000000 297.047992 296.968806 296.985921 300.000000 297.737082 300.000000 296.625802 300.000000 295.976487 297.161772 300.000000 300.000000 296.581575 300.000000 300.000000 298.625124 300.000000 296.123916 298.741248 300.000000 300.000000 296.746981 295.943986 297.566379 296.292621 300.000000 297.293825 300.000000 300.000000 300.000000 300.000000 300.000000 296.367572 300.000000 300.000000 296.481565 300.000000 300.000000 300.000000 300.000000 298.158917 300.000000 297.690679 298.553481 297.671082 296.409190 300.000000 
        </DataArray>
      </PointData>
    </Piece>
  </UnstructuredGrid>
</VTKFile>
