<?xml version="1.0"?>
<VTKFile type="UnstructuredGrid" version="0.1" byte_order="LittleEndian">
  <UnstructuredGrid>
    <Piece NumberOfPoints="572" NumberOfCells="2009">
      <Points>
        <DataArray type="Float64" NumberOfComponents="3" format="ascii">
          0.911543 0.924279 0.924909
          0.327562 1.000000 0.864531
          0.574335 0.792100 1.000000
          0.963397 0.786603 0.750000
          0.675665 0.792100 1.000000
          0.872166 0.790927 1.000000
          0.250000 0.963397 0.786603
          0.630933 0.936987 0.875859
          0.350000 1.000000 0.750000
          0.650000 0.750000 1.000000
          0.750700 0.750000 0.832007
          0.250000 0.900000 0.750000
          0.717120 0.875112 0.938944
          0.901061 0.750000 0.832433
          0.296935 1.000000 0.829028
          0.874965 1.000000 0.793141
          0.370664 0.794815 0.750000
          0.872575 0.958837 1.000000
          0.377834 0.790927 1.000000
          0.917684 0.849040 1.000000
          0.741611 0.816531 0.841793
          0.922811 0.750000 0.864186
          0.674135 0.957360 1.000000
          0.304852 0.953430 0.796570
          0.726391 0.750000 0.790929
          0.575000 0.750000 0.958418
          0.475000 1.000000 0.793301
          0.888271 1.000000 0.922845
          0.250000 1.000000 0.850000
          0.475000 0.879904 1.000000
          0.500000 1.000000 0.836603
          0.868035 0.859645 0.937250
          1.000000 0.919848 0.902541
          0.675000 1.000000 0.793301
          0.450000 1.000000 0.918301
          0.594534 0.750000 0.910103
          0.470594 0.928284 0.825427
          0.925455 0.791583 0.750000
          0.878800 1.000000 0.879642
          0.812703 0.833989 0.915854
          0.701412 0.833880 1.000000
          0.552472 0.880090 0.750000
          0.904884 0.796132 0.883077
          0.293065 0.750000 0.875409
          0.806679 0.832745 0.831400
          0.625000 0.956699 1.000000
          0.329591 0.954715 0.750000
          0.775000 0.879904 1.000000
          0.799853 0.797367 0.952745
          0.379904 0.875000 1.000000
          0.801560 0.750000 0.833915
          0.328607 1.000000 0.903160
          0.300000 1.000000 0.750000
          0.513456 0.950264 0.804902
          0.611793 0.815018 0.932411
          0.250000 0.790925 0.872992
          0.331120 0.900050 1.000000
          0.675777 0.750000 0.790755
          0.953028 1.000000 0.829087
          0.544692 0.831990 0.917745
          0.395754 0.832845 0.918632
          0.600000 1.000000 0.836603
          0.378644 0.925214 0.750000
          0.425000 1.000000 0.956699
          1.000000 0.922438 0.864531
          0.625000 1.000000 0.956699
          0.291237 0.750000 0.826569
          0.286603 0.963397 0.750000
          0.870096 0.875000 1.000000
          0.952366 0.951304 0.944393
          0.425000 1.000000 0.879904
          0.423907 0.852586 0.750000
          0.575640 0.806150 0.875792
          0.655909 0.867242 0.867662
          0.774921 0.750000 0.873195
          0.290404 1.000000 0.923481
          0.475000 0.750000 0.783814
          0.250000 0.750000 0.950000
          0.850000 0.750000 1.000000
          0.467205 0.877782 0.750000
          0.704277 0.951637 0.951481
          0.694507 0.948739 0.801261
          0.675000 0.956699 0.750000
          0.774896 0.958124 1.000000
          0.473230 0.886538 0.937153
          0.885450 0.922424 1.000000
          0.548294 0.949091 0.948966
          0.847794 0.750000 0.918342
          0.749657 0.917873 1.000000
          0.702080 0.873946 0.803251
          0.595891 0.822831 0.823858
          0.250000 0.827562 0.885469
          0.631697 0.873739 0.812817
          0.250000 1.000000 0.900000
          0.875000 0.966506 0.750000
          0.675665 0.870487 0.750000
          0.865072 0.833702 0.750000
          0.500000 1.000000 0.750000
          0.549621 0.873937 0.887577
          0.250000 0.750000 0.750000
          0.825572 0.750000 0.877184
          0.292324 0.825187 0.750000
          0.957676 0.825187 1.000000
          0.745968 0.928546 0.928584
          0.403989 0.832959 1.000000
          0.325143 0.829875 0.892145
          0.449592 0.822343 0.822823
          0.625000 0.750000 0.956985
          0.625000 0.870096 1.000000
          0.379904 0.750000 0.875000
          0.250000 0.917094 0.846345
          0.860269 0.944606 0.944555
          0.595868 0.927137 0.927779
          0.325212 1.000000 0.792339
          0.450267 0.835657 1.000000
          0.950000 0.750000 0.750000
          0.378040 0.838346 0.838980
          0.675674 0.837998 0.912496
          0.250000 0.750000 0.800000
          0.525000 1.000000 0.879904
          0.371196 1.000000 0.879638
          0.859630 0.938102 0.872029
          0.587148 0.750000 0.865779
          0.921094 1.000000 0.952720
          1.000000 0.847692 0.931811
          0.956935 0.874591 1.000000
          0.250000 0.828809 0.797023
          0.649467 0.913862 1.000000
          0.423205 0.750000 0.900000
          0.875000 0.750000 0.793301
          0.700000 1.000000 0.750000
          0.825000 1.000000 0.793301
          0.352926 0.899709 0.899050
          0.426096 0.927427 0.926986
          0.506168 0.888241 0.863060
          0.432682 0.854164 0.951491
          0.564278 0.942649 0.881224
          0.700406 0.886061 0.889731
          0.725095 0.876928 1.000000
          0.924895 0.750000 0.792433
          0.376555 0.967100 0.750000
          1.000000 0.963397 0.786603
          0.963397 1.000000 0.963397
          0.850000 0.750000 0.750000
          0.800000 0.918339 1.000000
          0.322716 0.930518 0.838488
          0.625670 0.750000 0.790593
          0.324545 0.791583 0.750000
          1.000000 0.797011 0.829027
          0.250000 1.000000 0.750000
          0.500000 0.750000 1.000000
          0.826773 0.952439 0.750000
          0.743006 0.929928 0.820380
          0.389238 0.943378 0.884154
          0.824794 0.957624 1.000000
          0.575000 1.000000 0.879904
          0.286603 1.000000 0.786603
          0.512594 0.902043 0.750000
          0.524905 0.876928 1.000000
          0.725000 0.750000 0.871054
          0.849994 1.000000 0.836576
          0.750000 1.000000 0.836602
          0.913397 0.900000 0.750000
          0.700000 0.750000 1.000000
          0.872142 0.750000 0.958297
          1.000000 0.920480 0.952100
          1.000000 0.797815 0.926414
          1.000000 0.900000 1.000000
          1.000000 0.833948 0.899881
          0.525000 1.000000 0.956699
          0.963397 0.750000 0.786603
          0.475000 1.000000 0.956699
          0.597751 0.823967 0.750000
          0.959311 0.750000 0.877417
          0.875176 0.874798 0.874824
          0.675000 0.788389 0.750000
          0.550000 0.750000 1.000000
          0.395837 0.879578 0.870928
          0.725776 0.792717 1.000000
          0.551405 0.916035 1.000000
          0.499205 0.836121 1.000000
          0.694923 0.801032 0.948898
          0.701460 0.830277 0.750000
          0.628006 0.750000 0.871000
          0.549018 0.831083 0.750000
          0.900000 1.000000 1.000000
          0.960250 0.923619 1.000000
          0.575000 1.000000 0.956699
          0.525263 0.750000 0.958856
          0.870096 0.875000 0.750000
          0.901514 1.000000 0.832283
          0.826397 0.850985 0.750000
          0.774127 0.791152 0.750000
          0.379904 0.875000 0.750000
          0.525000 1.000000 0.793301
          0.957654 1.000000 0.924972
          0.550000 0.750000 0.750000
          0.699984 0.800695 0.877137
          1.000000 0.750000 1.000000
          0.314625 0.870081 0.940315
          0.525222 0.839106 0.838026
          0.327713 0.953675 1.000000
          0.250000 0.800000 1.000000
          0.850813 0.750000 0.836110
          0.332316 0.849040 1.000000
          0.250000 0.796299 0.922332
          0.423074 0.750000 0.849197
          0.293065 0.874591 0.750000
          0.250000 1.000000 1.000000
          0.650001 0.913433 0.750000
          0.575000 1.000000 0.793301
          0.250000 0.826376 0.960258
          0.800000 0.953029 0.952999
          0.314028 0.816295 0.825349
          0.779775 0.873846 0.750000
          1.000000 1.000000 0.800000
          0.900000 0.750000 0.750000
          0.500000 0.750000 0.750000
          0.450000 0.750000 1.000000
          0.700000 1.000000 1.000000
          0.812717 0.915455 0.832747
          1.000000 0.953701 0.827668
          0.329090 0.797047 1.000000
          0.250000 0.875000 0.870096
          0.600000 1.000000 0.750000
          0.525062 0.787826 0.750000
          0.650000 1.000000 0.836603
          0.545116 0.918348 0.831745
          0.963397 1.000000 0.786603
          0.427111 0.802225 0.947353
          0.627345 0.868214 0.750000
          0.547971 0.803401 0.799835
          1.000000 0.750000 0.800000
          0.450607 0.875666 0.875666
          0.291237 0.923431 0.750000
          0.473712 0.937697 0.887404
          0.250000 0.849947 0.918883
          0.397375 0.800350 0.800674
          0.328781 1.000000 0.952335
          0.872422 1.000000 0.959113
          0.450000 1.000000 1.000000
          0.525383 0.912448 0.912546
          0.937179 0.880152 0.887202
          0.400000 0.750000 1.000000
          0.772771 0.938558 0.873827
          0.700000 1.000000 0.836602
          0.558425 0.750000 0.834400
          0.650106 0.828019 0.750000
          0.289750 0.923619 1.000000
          0.300000 0.750000 0.750000
          0.612033 0.933757 0.815406
          0.475000 1.000000 0.879904
          0.600000 0.750000 1.000000
          0.476734 0.789731 0.750000
          0.750000 1.000000 1.000000
          0.800000 0.750000 1.000000
          1.000000 0.900052 0.831116
          0.435374 0.806558 0.880171
          0.250000 0.900000 1.000000
          0.825000 1.000000 0.879904
          0.650000 1.000000 0.918301
          0.250000 0.950000 0.750000
          0.425862 0.876483 1.000000
          0.250000 0.952953 0.920910
          0.750248 0.875048 0.875048
          0.960240 0.750000 0.923802
          0.900070 0.797512 0.799926
          0.350000 0.750000 0.750000
          0.724736 0.956822 0.750000
          1.000000 0.923624 0.789742
          0.377169 1.000000 0.958876
          0.825887 0.750000 0.792653
          0.957676 0.825187 0.750000
          0.482864 0.871185 0.808410
          0.550000 1.000000 1.000000
          0.250000 0.924813 0.957676
          0.250000 1.000000 0.950000
          0.250000 0.950000 1.000000
          0.698619 0.916042 1.000000
          0.816860 0.872918 0.872533
          0.950000 1.000000 0.750000
          0.292324 0.750000 0.924813
          0.508654 0.856362 0.750000
          0.606066 0.750000 0.831055
          0.941188 0.875201 0.808812
          0.400000 1.000000 0.836603
          0.334613 0.874810 0.808971
          0.868611 0.848692 0.814365
          0.400000 0.750000 0.750000
          1.000000 0.750000 0.950000
          0.500000 1.000000 0.918301
          0.433459 0.952638 0.855378
          0.775000 1.000000 0.793300
          0.548592 0.833881 1.000000
          0.749390 0.831236 0.750000
          0.922377 0.828599 0.921106
          0.470230 0.824172 0.927233
          0.465770 0.750000 0.875280
          0.586866 0.860882 0.750000
          1.000000 0.850000 1.000000
          0.487173 0.943862 0.944279
          0.286603 0.750000 0.963397
          0.250000 0.790436 0.826492
          0.450000 1.000000 0.836603
          0.625000 1.000000 0.879904
          1.000000 1.000000 0.950000
          0.925159 0.824965 0.839253
          0.799733 0.835657 1.000000
          0.816436 0.917775 0.916503
          0.774113 0.750000 0.957374
          0.710729 0.800487 0.800798
          0.824483 0.792114 1.000000
          0.900000 1.000000 0.750000
          1.000000 0.950000 0.750000
          0.513233 0.855783 0.952961
          0.633409 0.812658 0.873352
          0.959073 1.000000 0.877834
          0.921529 0.750000 0.952024
          0.489789 0.799354 0.799018
          0.951872 0.944311 0.798314
          0.250000 0.900960 0.917684
          0.650282 0.832116 1.000000
          0.625000 1.000000 0.793301
          0.566686 0.799549 0.950228
          0.469541 0.750000 0.825147
          0.563724 0.880923 0.943309
          0.364550 0.922424 1.000000
          0.425517 0.792114 1.000000
          0.700000 1.000000 0.918301
          0.250000 1.000000 0.800000
          0.640016 0.801469 0.800438
          0.922684 1.000000 0.864479
          0.954120 0.805692 0.953331
          0.625004 0.956909 0.750000
          0.824138 0.876483 1.000000
          0.305726 0.805788 0.944212
          0.625000 0.791848 1.000000
          0.475104 0.958124 1.000000
          0.773455 0.957078 0.750000
          0.250000 0.750000 0.850000
          0.849293 0.957142 0.808872
          0.945793 0.882191 0.944060
          0.395905 0.918146 0.831558
          0.777651 0.877346 0.939537
          1.000000 1.000000 0.850000
          0.459140 0.750000 0.918789
          0.952166 0.804468 0.799084
          0.600000 1.000000 0.918301
          0.725000 1.000000 0.956699
          0.886988 0.750000 0.921556
          0.500000 1.000000 1.000000
          0.785202 0.805385 0.875786
          0.519363 0.750000 0.797261
          0.574207 0.788276 0.750000
          0.800000 1.000000 1.000000
          0.573392 0.873953 0.805663
          0.250000 0.830020 0.847295
          0.675259 0.911990 0.838010
          0.625022 0.787942 0.750000
          1.000000 0.800000 0.750000
          0.378089 0.750000 0.824851
          0.725111 0.870981 0.750000
          0.956935 0.874591 0.750000
          0.525665 0.957900 1.000000
          0.502011 0.856249 0.902924
          0.963397 0.786603 1.000000
          0.953735 0.813280 0.882863
          0.301672 0.946872 0.886630
          0.750000 0.750000 1.000000
          1.000000 1.000000 0.900000
          0.250000 0.963397 0.963397
          0.472965 0.967159 0.750000
          0.377425 0.958837 1.000000
          0.495804 0.802688 0.876598
          0.826529 0.800223 0.750000
          0.424231 0.750000 0.795330
          0.463831 0.833784 0.750000
          0.450000 1.000000 0.750000
          0.600000 0.750000 0.750000
          0.575083 0.872718 1.000000
          0.370664 0.750000 0.955185
          0.865710 0.904544 0.914423
          0.791223 0.919395 0.750000
          0.676044 0.829420 0.829978
          0.800000 0.750000 0.750000
          0.250000 0.750000 0.900000
          0.800000 0.952715 0.796408
          0.675000 1.000000 0.879904
          0.855738 0.811524 0.870664
          0.650000 1.000000 0.750000
          1.000000 0.959480 0.923404
          0.749335 0.750000 0.913943
          0.850000 1.000000 1.000000
          0.630807 0.875202 0.937178
          0.950000 0.750000 1.000000
          0.846011 0.832959 1.000000
          1.000000 0.959075 0.877008
          0.250000 0.850000 0.750000
          0.340706 0.750000 0.907831
          0.509808 0.750000 0.850000
          0.750795 0.836121 1.000000
          0.848034 1.000000 0.919203
          1.000000 0.849038 0.832313
          0.475000 0.793301 1.000000
          0.712056 0.940622 0.877092
          0.769868 0.816253 0.796739
          1.000000 0.874591 0.793065
          0.250000 0.959073 0.872166
          0.920409 0.954715 0.750000
          0.724335 0.957900 1.000000
          0.364550 0.827576 1.000000
          0.852615 0.803895 0.946351
          0.725000 1.000000 0.793301
          0.776331 0.750000 0.791717
          0.424150 0.800716 0.750000
          1.000000 0.800000 1.000000
          0.423551 0.750000 0.949709
          0.918880 0.900050 1.000000
          0.921596 0.750000 0.903050
          0.595468 0.908236 0.750000
          0.810961 0.874584 0.796681
          1.000000 0.850000 0.750000
          0.800000 1.000000 0.918301
          0.550000 1.000000 0.750000
          0.300000 0.750000 1.000000
          0.650000 1.000000 1.000000
          0.824335 0.750000 0.957900
          0.312683 0.933656 0.938900
          0.425206 0.957624 1.000000
          0.775000 1.000000 0.879904
          0.360255 0.805287 0.950072
          0.519132 0.953573 0.750000
          1.000000 0.950000 1.000000
          0.950000 1.000000 1.000000
          0.872078 0.924777 0.750000
          0.800000 1.000000 0.750000
          0.799999 1.000000 0.836598
          0.286603 0.963397 1.000000
          0.600000 0.875785 0.875226
          0.550000 1.000000 0.918301
          0.388654 0.885486 0.943124
          0.845056 0.798750 0.810536
          0.921005 1.000000 0.903547
          0.599668 0.832057 1.000000
          0.675000 0.750000 0.956699
          0.293065 0.874591 1.000000
          0.423745 0.872766 0.805659
          1.000000 0.872035 0.960480
          0.400000 1.000000 1.000000
          0.748439 0.914458 0.750000
          0.798654 0.750000 0.916141
          0.524224 0.792717 1.000000
          0.924788 1.000000 0.792339
          0.759177 0.869617 0.813053
          1.000000 0.825020 0.962934
          0.550153 0.920983 0.750000
          0.250000 0.957654 0.825028
          1.000000 0.827562 0.864531
          0.963397 0.963397 0.750000
          0.329591 0.750000 0.795285
          0.403825 0.918118 1.000000
          0.825000 1.000000 0.956699
          0.920910 0.797047 1.000000
          0.250000 0.869149 0.829424
          0.471152 0.926650 0.750000
          0.401896 1.000000 0.919162
          1.000000 0.963397 0.963397
          0.650000 0.750000 0.913445
          0.336603 0.900000 0.750000
          0.725000 0.750000 0.956699
          0.922287 0.953675 1.000000
          0.575025 0.957963 0.750000
          0.250000 0.922424 0.885450
          0.476580 0.750000 0.957611
          0.423590 0.901550 0.750000
          0.963397 0.963397 1.000000
          0.700000 0.913403 0.750000
          1.000000 0.825187 0.792324
          0.725098 0.790254 0.750000
          0.700000 0.750000 0.831231
          0.900000 0.750000 1.000000
          0.286603 1.000000 0.963397
          0.300000 1.000000 1.000000
          1.000000 0.786603 0.786603
          0.371111 0.803427 0.880095
          0.503220 0.819478 0.750000
          0.503634 0.750000 0.910631
          0.879336 0.794815 0.750000
          0.775000 0.793301 1.000000
          0.958763 0.923431 0.750000
          0.286603 0.786603 1.000000
          0.775000 1.000000 0.956699
          0.900060 0.954854 0.804157
          0.652078 0.750000 0.831034
          0.427731 0.948769 0.803524
          0.286603 0.786603 0.750000
          0.290689 1.000000 0.877417
          0.700000 0.750000 0.750000
          1.000000 1.000000 0.750000
          0.348476 1.000000 0.832311
          0.639552 0.949174 0.949174
          0.550000 1.000000 0.836603
          1.000000 0.750000 0.850000
          1.000000 0.750000 0.750000
          1.000000 0.750000 0.900000
          0.790941 0.830388 0.750000
          0.871260 0.911127 0.811066
          0.250000 0.850000 1.000000
          0.750000 0.750000 0.750000
          0.450000 0.750000 0.750000
          0.850000 1.000000 0.750000
          0.500347 0.917872 1.000000
          0.953015 0.750000 0.829059
          0.374781 1.000000 0.792425
          1.000000 0.900000 0.750000
          0.324545 0.750000 0.958417
          0.963397 0.750000 0.963397
          0.312600 0.878556 0.862753
          0.725000 1.000000 0.879904
          0.909294 0.842169 0.750000
          1.000000 0.882613 0.918301
          0.400000 1.000000 0.750000
          0.650000 0.750000 0.750000
          0.846175 0.918118 1.000000
          0.250000 0.786603 0.786603
          0.743334 0.820082 0.930044
          0.385999 0.833467 0.750000
          0.292324 0.825187 1.000000
          0.286603 0.750000 0.786603
          0.600795 0.913879 1.000000
          1.000000 0.790689 0.877417
          0.885450 0.827576 1.000000
          0.424540 0.955573 0.750000
          0.827673 0.899155 0.750000
          0.700000 0.750000 0.913405
          0.250000 0.800000 0.750000
          0.750000 1.000000 0.918301
          0.250000 0.872987 0.783377
          0.514384 0.953289 0.857166
          0.340706 0.842169 0.750000
          0.879072 0.750000 0.878972
          0.384928 0.750000 0.916298
          0.575776 0.957283 1.000000
          0.600000 1.000000 1.000000
          0.925051 0.925026 0.839865
          0.674948 0.872716 1.000000
          0.549428 0.750000 0.924069
          0.513498 0.802975 0.949179
          0.425000 1.000000 0.793301
          0.838361 0.895605 0.955831
          0.675000 1.000000 0.956699
          0.363012 1.000000 0.921556
          0.674538 0.920666 0.920627
          1.000000 0.875000 0.879904
          1.000000 1.000000 1.000000
          0.450000 0.918339 1.000000
          0.350000 1.000000 1.000000
          0.359664 0.946402 0.799351
          0.376382 0.750000 0.783093
          1.000000 0.786603 0.963397
          0.675000 0.750000 0.870924
          0.548708 0.750000 0.882339
          0.250000 0.750000 1.000000
          0.250000 0.921027 0.793630
          0.946441 0.946246 0.887046
          0.575975 0.750000 0.790774
          0.350000 0.750000 1.000000
          0.250000 0.875409 0.956935
          0.250000 0.786603 0.963397
          0.750000 1.000000 0.750000
          0.336603 0.750000 0.850000
          0.370878 0.944304 0.939917
        </DataArray>
      </Points>
      <Cells>
        <DataArray type="Int32" Name="connectivity" format="ascii">
          264 89 383 137 264 20 383 89 226 357 245 404 387 226 245 404 383 20 264 137 157 227 273 355 210 227 471 250 501 227 210 250 501 227 250 136 383 197 20 137 193 286 342 557 501 250 61 136 471 227 210 53 342 517 286 177 145 517 342 177 145 286 342 517 320 427 199 517 539 116 213 237 427 517 320 367 282 200 184 355 455 250 227 355 282 273 200 355 331 121 544 564 200 233 106 373 117 264 525 197 264 197 117 137 264 117 525 137 132 517 145 177 382 152 420 386 287 506 174 284 0 31 85 381 382 152 453 420 31 549 85 381 145 153 1 367 193 342 286 446 544 174 506 284 436 121 220 340 439 290 119 241 264 357 152 89 158 241 511 325 526 116 193 286 395 31 39 549 126 213 101 286 436 220 259 244 259 220 121 244 132 145 342 177 132 199 427 517 245 357 226 81 471 227 455 250 20 197 264 137 539 213 116 286 290 241 439 86 193 286 116 446 511 241 179 325 184 355 200 231 436 259 220 121 526 193 116 446 317 295 349 411 157 273 41 355 246 200 72 231 321 545 117 393 439 241 119 136 27 38 442 0 184 200 282 231 51 153 571 367 357 250 226 81 158 511 179 325 545 40 321 117 233 200 106 273 38 442 0 564 241 325 158 314 282 41 273 355 511 241 158 314 38 0 27 121 132 517 427 367 321 117 40 181 290 119 241 538 417 85 0 31 38 0 121 564 40 117 545 12 27 121 0 111 189 506 287 284 545 393 552 12 317 462 295 411 334 307 343 549 545 117 393 12 499 1 145 153 501 210 227 53 438 59 54 325 306 174 242 284 132 105 60 199 321 54 117 181 226 250 322 81 226 250 357 7 174 306 287 284 499 153 145 557 39 343 307 549 179 241 511 86 200 233 373 364 204 199 440 430 544 242 174 284 331 190 544 121 501 210 61 250 357 264 152 137 264 357 89 137 38 121 331 564 336 54 321 181 439 241 136 86 117 54 321 393 82 33 322 81 455 227 471 53 227 438 250 136 119 136 241 538 116 257 106 177 233 106 257 177 200 72 90 98 241 179 325 86 200 134 233 364 438 90 72 98 436 160 121 340 132 199 60 440 204 440 410 430 33 226 322 81 220 420 152 386 462 531 295 411 193 342 62 557 107 54 336 181 417 31 0 341 290 241 235 538 525 391 197 351 264 20 525 197 233 200 273 134 157 273 227 53 55 105 43 213 438 54 393 325 200 399 72 373 127 552 545 393 450 87 100 39 511 84 241 314 459 16 213 237 100 39 87 388 444 336 4 181 91 105 55 213 60 440 199 430 526 116 539 237 546 59 561 373 342 153 285 557 220 453 152 420 39 87 388 411 539 213 16 237 245 404 357 81 295 31 388 411 91 55 356 213 357 152 404 137 233 133 440 135 463 286 145 517 440 177 233 135 322 250 333 81 295 411 388 42 428 133 63 300 462 164 5 411 60 233 177 135 438 7 250 136 259 121 308 244 60 177 440 135 233 153 133 291 264 404 152 137 499 285 153 557 159 197 391 351 40 117 12 181 145 286 563 23 220 287 506 279 56 199 427 440 209 250 357 81 551 571 51 153 526 539 116 286 206 257 237 484 545 552 278 12 60 199 105 430 295 306 174 242 116 237 257 484 455 419 250 355 174 506 287 279 174 306 295 42 1 153 120 367 290 235 241 300 50 351 388 441 234 563 286 23 450 39 100 351 56 427 571 440 157 282 41 273 282 231 200 318 571 153 132 367 382 152 449 453 525 343 400 48 117 54 467 181 233 133 153 177 233 177 153 291 306 242 402 284 544 284 506 492 145 153 342 557 51 1 120 367 174 388 295 31 349 411 295 42 200 273 227 355 443 393 54 325 499 120 1 153 241 84 511 300 39 31 395 411 438 227 250 355 278 545 127 552 284 492 544 319 233 440 133 177 116 517 105 177 307 400 343 48 357 250 209 92 103 244 422 212 60 105 132 177 402 242 306 366 246 200 399 72 4 336 321 181 422 103 536 244 290 300 241 86 464 273 36 446 348 491 83 103 357 92 209 89 264 152 453 89 59 438 54 72 147 459 16 213 100 39 388 351 383 89 73 137 383 315 493 197 552 393 7 73 387 552 260 7 387 552 7 404 388 351 44 441 105 517 132 177 116 526 446 237 73 197 383 137 233 446 106 177 116 106 446 177 264 525 20 351 259 308 422 244 317 295 462 332 348 83 409 103 282 200 273 318 161 244 152 386 191 44 505 441 467 54 117 315 264 39 525 351 0 85 111 381 560 493 315 197 436 160 259 121 357 89 209 81 436 244 161 386 264 453 20 89 443 325 54 323 61 250 7 136 85 549 111 381 51 120 153 367 104 410 440 430 107 336 444 181 39 411 395 48 438 7 393 73 104 440 60 430 536 103 422 212 417 68 85 31 505 441 44 405 474 446 36 494 241 300 511 86 427 199 132 440 189 162 506 284 85 31 68 549 31 242 0 341 20 351 50 405 287 284 306 266 555 262 133 135 50 44 351 441 307 39 395 48 220 264 152 453 401 308 259 121 544 121 0 564 79 273 464 446 220 506 174 279 116 286 342 446 438 393 54 315 342 36 233 446 264 220 152 244 264 308 244 343 105 177 60 484 248 275 427 199 39 264 525 343 248 567 275 199 322 333 82 81 391 450 351 48 287 279 220 420 401 308 121 111 399 200 246 231 570 360 213 484 555 133 84 135 531 31 295 411 236 199 105 517 391 351 525 48 409 348 103 80 317 349 164 411 393 315 438 73 542 112 187 500 233 257 106 373 438 250 7 92 233 84 133 135 349 87 411 42 116 286 517 177 317 164 462 411 174 295 388 42 264 244 103 343 0 242 31 381 51 571 427 367 438 92 7 73 453 89 294 310 544 121 190 492 453 310 294 405 472 320 517 367 178 488 309 525 427 132 571 440 428 63 171 300 320 199 236 517 233 133 235 291 259 401 422 308 10 20 50 405 467 315 117 197 331 38 190 121 309 469 178 525 282 485 231 318 38 331 442 564 205 281 43 335 360 459 213 237 561 59 72 373 328 260 387 552 326 56 571 440 476 209 89 81 44 50 351 405 110 463 145 517 50 100 388 351 563 145 463 286 171 337 428 300 63 133 428 571 248 445 567 199 55 66 302 213 464 36 474 446 328 552 387 404 308 31 39 381 308 39 279 381 116 177 105 484 189 287 519 284 103 244 308 343 27 401 121 111 62 342 193 446 295 242 31 341 117 12 525 137 132 153 145 367 467 197 117 181 59 325 438 98 88 343 103 212 539 147 16 213 486 59 546 373 39 31 308 549 233 36 342 291 7 92 357 73 10 50 20 351 31 279 39 381 157 227 455 53 493 479 383 197 117 315 393 73 264 525 12 137 256 242 544 284 157 36 273 53 144 343 88 212 262 440 133 135 349 295 418 42 467 54 107 181 34 235 133 291 271 50 441 405 388 42 13 266 308 549 31 381 443 379 393 325 282 184 41 355 306 266 284 346 233 60 296 135 401 422 308 212 233 296 60 257 162 506 284 492 308 422 244 212 117 197 73 137 264 244 308 279 537 463 126 286 546 59 486 547 262 460 133 440 342 145 132 153 247 383 182 89 444 467 107 181 19 31 417 341 19 295 31 341 60 257 128 484 292 412 338 152 460 555 262 133 308 343 264 279 402 242 553 284 533 220 506 340 13 441 388 266 533 386 220 340 162 492 284 319 106 257 116 237 438 250 92 355 412 268 338 152 333 250 209 81 293 325 443 323 388 411 87 42 220 506 287 420 427 571 132 367 236 105 91 517 271 413 50 405 63 133 34 300 555 133 428 300 117 54 393 315 462 5 531 411 463 213 126 286 491 83 103 212 357 7 250 92 256 553 242 284 464 474 36 494 247 182 95 89 525 197 20 351 123 0 470 111 570 213 105 484 73 89 357 137 505 44 191 420 418 265 366 332 561 59 546 72 159 20 197 351 541 60 128 484 128 257 60 229 32 564 341 69 519 284 287 266 438 7 112 393 82 333 209 81 44 441 50 405 124 242 295 341 32 242 341 564 43 105 570 213 172 92 90 330 256 64 544 242 342 286 116 177 50 388 100 441 128 60 541 229 31 242 174 381 542 187 65 500 220 264 453 279 200 355 227 98 436 220 244 386 204 49 410 440 206 257 106 237 486 59 373 547 79 464 474 446 401 308 111 212 565 353 90 330 347 7 112 136 443 379 108 393 112 7 347 500 260 347 7 500 438 315 54 72 493 560 479 197 174 39 388 31 247 383 92 330 306 42 388 266 493 330 383 310 227 273 200 134 536 103 328 404 168 295 124 242 45 542 65 500 295 174 31 242 278 103 12 80 383 493 315 330 418 366 295 332 374 191 505 441 278 103 88 12 317 418 349 295 308 121 220 244 17 239 123 111 187 112 542 86 537 563 463 286 34 133 70 291 245 152 161 404 95 209 92 89 479 493 383 310 447 454 102 341 552 260 7 500 374 441 505 405 220 121 174 506 454 102 341 332 191 44 441 420 529 393 112 500 512 346 306 366 531 19 295 31 488 309 525 48 304 7 347 136 39 264 279 351 100 388 203 441 257 373 233 364 200 231 399 318 529 127 393 500 112 7 552 393 271 192 413 405 328 404 103 80 39 307 343 48 174 388 306 42 536 244 103 404 449 453 152 89 227 355 438 98 476 449 152 89 233 342 177 291 320 236 223 517 13 203 388 441 0 242 544 564 551 51 120 153 27 0 123 111 105 116 213 517 127 552 393 500 486 546 561 373 563 110 463 145 227 273 36 53 468 234 286 23 383 330 247 310 220 386 436 340 50 100 203 441 296 257 233 364 106 257 324 373 38 27 401 121 104 60 440 135 360 206 237 484 174 287 306 388 157 36 464 273 533 506 220 420 561 72 399 373 296 373 257 364 438 90 92 73 127 552 500 80 36 273 233 446 191 441 287 420 438 315 90 73 172 230 92 330 371 36 26 494 172 90 353 330 283 315 493 330 534 525 391 197 519 284 266 346 341 564 0 69 552 7 357 73 428 133 460 571 546 72 59 323 304 347 155 136 58 544 221 564 347 112 439 136 328 260 552 80 256 402 553 284 306 388 287 266 439 136 112 86 357 552 73 137 439 112 347 86 525 12 400 343 399 373 200 318 127 278 552 80 182 294 89 310 245 152 404 81 145 557 286 23 271 441 374 405 184 282 485 231 44 279 264 351 471 455 419 250 112 393 529 325 371 26 36 53 443 321 54 393 464 36 157 53 536 328 103 80 456 145 14 367 379 529 393 325 182 383 247 310 474 342 62 446 152 244 161 404 443 293 379 325 278 88 103 80 544 242 64 564 61 250 226 7 168 295 242 366 476 89 152 81 39 264 343 279 101 213 539 286 55 43 66 213 278 12 552 80 264 220 244 279 190 492 121 340 283 90 315 330 200 72 59 373 264 20 44 351 536 518 244 404 306 242 295 366 44 279 287 420 527 211 445 199 544 174 121 506 108 379 529 393 338 292 152 386 467 534 197 181 429 422 536 244 400 525 40 12 63 34 171 300 20 89 453 310 88 12 103 343 44 388 287 279 287 388 174 279 304 260 347 7 213 286 463 517 236 91 223 517 17 123 470 111 505 44 420 405 470 0 85 111 303 291 36 538 0 341 242 564 247 92 230 330 283 315 90 72 233 257 60 177 187 112 347 500 123 470 0 69 65 187 347 500 297 324 257 373 495 524 528 213 101 524 495 213 21 512 306 366 443 108 321 393 39 174 388 279 74 159 391 351 39 388 31 411 71 106 446 237 459 558 16 237 220 174 121 279 260 500 552 80 398 570 105 484 251 291 303 538 172 90 355 231 162 189 519 284 172 355 184 231 567 445 211 199 221 544 58 319 54 325 59 323 526 193 539 286 495 528 147 213 468 286 557 23 19 68 417 31 565 90 353 231 57 330 493 310 227 134 200 98 345 257 296 373 449 152 382 386 337 555 428 300 116 286 213 517 447 102 125 341 40 12 525 181 527 211 199 335 450 39 351 48 174 39 31 279 393 73 552 137 30 303 36 538 296 135 114 314 49 104 410 440 474 342 446 494 499 285 120 153 534 525 197 181 44 453 264 279 512 148 346 366 388 441 287 266 382 453 214 420 264 44 20 453 533 420 220 386 70 133 153 291 349 540 87 42 438 72 59 98 407 456 14 367 565 358 353 330 179 112 529 325 328 552 404 80 438 136 227 98 117 73 393 137 160 190 121 340 220 121 308 279 210 471 322 250 144 343 212 549 39 343 525 48 88 138 12 343 561 246 399 72 320 427 275 199 287 441 44 420 220 279 453 420 382 449 214 453 474 62 193 446 138 400 12 343 91 105 236 335 19 462 531 295 39 308 343 549 29 114 135 314 264 244 152 404 20 310 453 405 172 247 230 330 36 273 227 134 320 275 567 199 112 325 179 86 357 7 552 404 271 374 192 405 30 251 303 538 518 161 244 404 342 446 233 177 479 57 493 310 555 84 133 300 308 244 103 212 173 530 512 366 63 465 133 571 524 302 66 213 179 529 112 86 70 133 465 153 233 235 84 134 358 172 353 330 34 465 70 133 236 105 199 335 438 112 136 98 62 342 474 494 287 506 189 420 471 210 194 53 453 279 44 420 172 298 184 355 348 536 491 103 342 286 145 557 34 133 235 300 272 477 284 346 105 335 398 430 396 316 58 564 418 42 295 366 454 341 124 332 414 375 106 237 180 296 114 314 473 403 296 229 264 12 525 343 308 244 220 279 19 295 341 332 123 27 442 0 358 565 146 330 161 152 245 81 106 373 324 318 317 418 295 332 227 136 501 538 295 42 306 366 331 544 58 564 518 536 328 404 105 430 398 484 60 430 541 229 438 393 112 325 88 409 83 103 540 388 87 42 292 161 152 386 126 524 101 213 251 235 291 538 241 84 235 134 342 557 285 494 526 539 16 237 161 412 152 81 221 544 64 564 19 462 295 332 110 145 456 367 391 525 534 181 29 135 84 314 285 153 342 291 546 59 547 323 308 212 343 549 122 283 246 72 403 473 296 547 467 560 315 197 200 373 59 364 161 245 412 81 283 565 90 330 246 72 90 231 59 72 200 98 124 454 447 341 233 273 106 446 127 500 22 80 417 341 0 69 356 55 302 213 175 247 330 310 239 27 123 111 153 177 342 291 412 268 152 81 309 391 525 48 376 106 273 446 103 244 264 404 152 244 220 386 39 343 308 279 200 373 106 318 398 570 43 105 429 259 422 244 10 50 413 405 110 517 145 367 112 7 438 136 269 489 284 319 19 341 102 332 233 235 36 291 182 89 383 310 388 279 44 351 39 279 388 351 292 161 412 152 407 110 456 367 74 20 159 351 199 335 105 430 449 476 152 81 174 279 31 381 283 183 493 315 178 525 469 181 283 90 246 72 278 88 138 12 479 383 197 310 21 306 42 366 396 58 221 564 44 351 20 405 472 517 110 367 147 528 459 213 541 430 60 484 488 525 400 48 191 96 287 441 345 296 257 229 21 173 512 366 391 469 525 181 66 528 524 213 233 296 84 135 542 112 529 86 238 51 551 571 105 213 116 484 294 453 361 89 155 501 61 136 40 525 178 181 71 446 526 237 400 178 40 525 241 136 112 98 403 114 180 296 29 180 114 314 204 335 199 430 133 84 233 235 104 430 60 229 71 414 106 237 520 242 124 341 400 488 178 525 95 476 209 89 309 391 469 525 30 303 26 36 570 360 459 213 417 186 341 69 283 146 565 330 206 324 106 257 438 325 112 98 264 103 404 137 88 47 138 343 175 182 247 310 17 470 85 111 449 361 453 89 127 22 278 80 428 460 372 571 124 341 295 332 56 248 427 199 138 47 400 343 473 345 296 547 101 495 147 213 91 356 223 517 464 36 371 494 533 151 386 340 304 61 226 7 306 13 42 266 391 534 469 181 54 315 35 72 233 134 84 364 103 12 264 343 544 506 121 492 180 403 296 547 357 404 552 137 501 194 210 53 13 388 540 42 525 351 39 48 536 491 103 212 13 21 512 306 90 72 200 231 320 223 472 517 460 571 133 440 206 106 375 237 464 371 36 53 14 145 456 23 467 35 54 315 116 446 342 177 406 362 477 284 256 553 64 242 419 92 250 355 536 518 429 244 449 152 268 81 110 456 145 23 200 59 98 364 245 161 518 404 83 88 103 212 438 92 90 355 428 555 460 133 470 417 0 69 322 471 333 250 14 496 407 367 353 90 172 231 90 315 438 72 356 213 463 517 331 190 58 544 30 36 26 53 419 209 250 92 241 112 325 98 530 148 512 366 132 153 571 440 571 153 133 440 84 134 241 364 306 284 402 346 92 73 383 89 201 270 372 571 357 73 92 89 187 347 112 86 360 558 459 237 540 13 203 388 238 427 51 571 56 445 248 199 383 89 20 310 376 71 106 446 32 242 520 341 233 273 36 134 403 114 296 229 520 168 124 242 342 153 132 177 144 47 88 343 136 134 227 98 297 257 345 373 362 272 477 284 550 500 260 80 546 35 72 323 227 538 501 53 338 152 449 386 168 124 295 332 24 310 10 405 132 440 60 177 436 259 429 244 90 92 383 330 62 557 342 494 123 0 442 69 182 294 361 89 241 134 136 98 295 366 168 332 465 34 63 133 36 446 342 494 360 109 206 484 26 36 303 494 136 134 241 538 32 64 242 564 376 273 106 318 36 291 235 538 21 306 13 42 0 111 121 381 449 268 476 81 256 284 544 319 101 147 539 213 383 73 315 197 345 473 296 229 227 134 136 538 512 266 306 346 400 40 138 12 529 127 108 393 269 362 406 284 315 73 117 197 60 135 104 229 207 468 234 286 470 417 85 0 382 420 533 386 383 315 90 330 13 306 512 266 533 189 506 420 236 199 211 335 256 64 221 544 519 272 284 346 107 336 54 323 264 12 103 137 74 10 159 20 413 24 10 405 71 414 376 106 105 199 132 517 338 268 449 152 32 341 165 69 25 2 336 323 10 310 20 405 160 190 38 121 533 506 434 340 479 197 20 310 489 362 269 284 328 550 260 80 103 343 308 212 221 256 544 319 205 91 236 335 112 393 552 500 84 135 296 314 565 246 90 231 322 82 389 33 511 29 84 314 14 145 1 367 285 291 342 494 290 235 251 538 387 260 304 7 308 279 121 381 283 565 246 90 345 296 486 373 552 7 112 500 140 513 557 494 486 296 345 547 116 446 106 237 477 402 284 346 317 265 418 332 429 518 161 244 159 20 479 197 321 108 545 393 121 492 506 340 442 0 564 69 179 542 529 86 24 478 310 405 206 297 324 257 144 334 343 549 481 370 75 427 304 226 387 7 47 307 400 343 207 101 539 286 58 544 190 492 34 235 290 300 513 285 557 494 36 235 233 134 133 571 465 153 95 230 247 92 447 125 186 341 345 257 128 229 555 511 84 300 24 192 478 405 376 273 79 446 63 171 240 428 10 74 50 351 292 436 161 386 54 72 35 323 226 61 322 250 431 471 194 53 413 192 24 405 265 530 173 366 144 334 47 343 265 166 366 332 121 279 174 381 210 322 61 250 467 183 35 315 19 125 102 341 206 109 257 484 290 251 119 538 337 240 171 428 171 169 337 300 140 548 513 494 560 493 183 315 436 429 161 244 544 492 58 319 543 65 542 187 543 65 45 542 337 171 350 169 83 348 254 491 191 287 189 420 106 273 200 318 183 35 315 72 338 449 382 386 309 450 391 48 337 169 363 300 132 145 517 367 256 269 284 319 152 89 357 81 409 103 88 80 536 103 348 80 238 270 201 571 159 10 479 20 373 547 59 364 169 350 337 363 409 348 254 83 4 444 9 336 47 334 307 343 357 404 152 81 380 430 18 229 108 127 545 393 296 547 373 364 534 391 159 197 200 355 90 231 206 324 375 106 10 20 74 351 511 158 29 314 110 145 563 23 336 443 321 54 183 122 35 72 431 455 471 53 63 270 465 571 107 25 336 323 162 284 489 319 470 186 417 69 60 430 105 484 396 221 64 564 443 54 336 323 75 51 427 367 204 527 199 335 370 263 75 427 552 12 103 80 476 361 449 89 173 418 265 366 18 430 104 229 347 439 155 136 437 248 275 427 233 84 296 364 238 201 427 571 372 201 556 270 109 128 257 484 525 12 117 181 447 167 186 125 178 368 309 488 469 368 309 178 533 434 151 340 316 331 58 564 201 437 481 427 187 439 347 86 236 567 211 199 479 20 10 310 265 166 530 366 293 547 314 323 66 43 570 213 486 373 296 547 117 197 525 181 326 571 460 440 103 552 404 137 461 239 154 111 180 296 314 547 79 157 464 273 154 239 17 111 287 441 96 266 103 12 552 137 327 416 18 229 185 17 239 123 512 173 502 530 488 400 307 48 164 480 462 5 14 1 496 367 290 169 300 86 275 248 258 567 230 92 419 355 168 242 553 366 541 430 380 229 545 278 138 12 448 428 372 270 82 322 389 333 428 448 63 270 567 248 258 445 241 325 314 364 523 212 111 549 214 505 420 405 292 412 569 338 336 25 252 2 241 98 325 364 29 555 511 84 338 412 569 268 370 481 437 427 447 186 165 341 370 437 275 427 251 290 34 235 227 36 134 538 524 126 302 213 322 210 224 471 391 450 74 351 316 344 396 58 326 49 56 440 102 447 299 454 2 443 336 323 376 79 71 446 66 459 528 213 536 422 491 212 314 547 59 323 461 392 154 239 392 17 154 239 191 374 96 441 527 211 507 445 548 371 26 494 30 538 36 53 419 230 209 92 467 534 560 197 444 107 9 336 541 398 430 484 511 300 363 86 165 341 186 69 211 567 507 445 499 557 145 23 140 557 62 494 84 235 133 300 532 548 140 494 32 64 553 242 531 395 31 411 201 481 238 427 401 111 461 212 154 111 523 212 416 380 18 229 526 71 193 446 195 316 390 564 103 404 552 80 499 1 14 145 138 40 545 12 413 271 384 192 298 230 419 355 230 95 209 92 59 72 54 323 406 477 402 284 214 420 453 405 520 553 168 242 263 75 427 367 287 388 44 441 465 571 551 153 477 406 421 362 57 175 330 310 75 51 238 427 60 257 296 229 472 223 110 517 110 563 456 23 83 144 88 212 473 486 345 547 68 31 395 549 396 390 316 564 201 238 556 270 467 560 183 315 531 68 19 31 20 197 383 310 114 135 296 229 399 324 373 318 104 440 49 135 406 256 269 284 185 17 123 470 125 447 299 102 68 395 334 549 241 235 84 300 206 109 128 257 399 231 352 318 421 477 362 272 119 501 136 538 519 287 96 266 169 363 300 86 293 158 325 314 186 165 167 447 499 145 14 23 263 427 320 367 121 506 220 340 523 144 212 549 344 221 396 58 189 191 96 287 290 439 169 86 26 371 97 53 93 496 75 367 245 226 33 81 302 55 339 66 13 129 441 266 241 325 112 86 530 502 512 148 308 121 111 381 252 107 25 336 235 241 134 538 155 119 501 136 164 480 317 462 112 136 241 86 166 168 366 332 303 36 291 494 445 204 527 199 38 401 259 121 390 195 369 316 463 356 126 213 87 450 426 48 561 546 35 72 32 520 165 341 87 426 411 48 408 492 162 319 168 553 457 366 514 406 269 362 243 18 327 416 109 541 128 484 293 158 379 325 210 194 423 471 396 390 369 316 401 461 422 212 194 26 97 53 540 100 87 388 379 179 529 325 245 518 387 404 395 411 311 48 13 129 203 441 235 134 36 538 24 413 508 192 455 41 419 355 271 129 143 441 512 139 266 346 192 508 24 478 489 514 269 362 179 511 363 86 434 506 162 492 311 5 78 411 403 451 150 547 333 322 224 471 449 361 214 453 311 78 426 411 36 538 227 53 222 335 204 430 164 78 5 411 513 548 285 494 374 384 271 192 385 55 205 43 164 426 78 411 496 93 407 367 214 453 294 405 342 291 36 494 253 414 509 76 548 532 371 494 518 328 387 404 398 335 515 430 513 140 521 548 173 42 418 366 154 461 111 212 499 513 285 557 21 42 173 366 307 395 311 48 456 14 28 407 532 140 62 494 375 509 414 76 487 143 129 441 154 523 144 212 296 135 60 229 327 18 104 229 519 272 362 284 536 348 328 80 173 265 504 530 13 512 139 266 281 385 205 43 487 96 441 266 472 263 320 367 496 28 14 407 481 75 238 427 548 371 377 26 468 557 46 23 82 209 476 81 473 403 150 547 195 564 390 69 21 418 173 42 471 194 423 431 534 467 444 181 113 557 499 23 263 93 75 367 442 564 195 69 184 298 41 355 168 166 124 332 320 567 236 199 209 333 419 250 140 532 521 548 550 22 425 500 523 111 85 549 35 107 467 54 451 176 188 323 20 453 44 405 390 564 32 69 189 96 519 287 70 153 285 291 126 356 302 213 451 2 176 323 66 570 459 213 278 409 88 80 550 22 500 80 113 8 513 557 352 399 246 231 333 471 419 250 371 431 97 53 200 98 134 364 214 294 505 405 18 243 380 416 372 460 326 571 416 541 380 229 378 565 146 358 321 40 4 181 71 526 414 237 234 11 207 537 84 241 314 364 271 143 374 441 431 157 455 53 412 130 268 81 533 151 382 386 223 356 463 517 378 565 358 353 532 371 377 548 531 395 68 31 218 416 327 229 522 57 175 330 32 553 520 242 201 372 326 571 104 49 262 135 403 327 114 229 178 469 163 181 45 127 529 500 188 150 451 547 214 361 294 453 160 38 259 121 58 492 452 319 550 425 65 500 49 440 262 135 263 407 93 367 166 504 265 530 533 189 434 506 140 513 8 557 439 119 155 136 218 473 416 229 57 497 175 310 43 339 55 66 34 290 171 300 120 465 551 153 522 146 57 330 109 360 570 484 45 425 22 500 162 362 489 284 211 527 490 335 194 97 431 53 374 505 192 405 320 263 275 427 412 33 130 81 104 18 410 430 519 266 37 346 487 374 143 441 297 128 345 257 268 130 82 81 453 420 44 405 345 486 297 373 222 18 566 430 205 236 211 335 187 542 274 86 188 473 150 547 515 222 566 430 522 175 358 330 497 478 175 310 126 101 397 537 285 70 120 153 532 62 474 494 469 444 163 181 26 303 548 494 376 282 79 273 294 310 478 405 203 100 540 388 50 74 100 351 33 82 130 81 157 79 282 273 434 506 492 340 178 163 4 181 201 56 248 427 501 538 30 53 191 189 533 420 131 436 386 340 497 57 24 310 128 541 416 229 347 260 65 500 516 462 365 332 431 464 157 53 169 187 274 86 204 222 527 335 18 380 566 430 515 566 380 430 111 212 308 549 555 337 511 300 180 314 293 547 45 65 425 500 370 275 263 427 451 547 293 323 46 8 113 557 11 234 563 537 211 490 568 335 146 522 358 330 188 547 451 323 267 16 459 558 122 246 561 72 434 492 94 340 464 532 474 494 542 363 274 86 176 25 188 323 169 274 363 86 129 487 441 266 379 158 179 325 444 4 163 181 450 100 74 351 142 475 470 69 437 201 248 427 170 148 483 346 510 94 15 340 353 172 184 231 497 24 478 310 434 189 162 506 228 141 221 319 510 151 94 340 131 151 510 340 301 281 568 335 515 335 222 430 464 371 532 494 468 46 234 23 326 460 49 440 24 479 10 310 303 291 285 494 314 547 296 364 46 140 8 557 568 281 205 335 131 510 15 340 113 499 14 23 101 207 397 537 59 547 314 364 110 407 472 367 104 135 114 229 58 190 452 492 19 102 462 332 176 2 25 323 417 186 125 341 398 281 515 335 530 457 148 366 317 462 516 332 485 225 231 318 238 551 270 571 123 142 470 69 267 16 147 459 262 49 460 440 169 171 290 300 228 221 58 319 539 193 468 286 110 223 463 517 221 269 256 319 194 501 30 53 519 37 272 346 546 547 188 323 297 399 324 373 22 550 219 80 434 162 408 492 222 204 410 430 345 416 473 229 464 431 371 53 408 162 489 319 512 148 170 346 311 411 426 48 402 477 148 346 523 85 68 549 301 490 515 335 337 363 511 300 180 293 451 547 195 123 442 69 15 94 312 492 485 225 184 231 345 128 416 229 225 196 353 231 217 225 253 318 519 362 162 284 15 492 190 340 193 71 474 446 228 452 458 319 15 312 452 492 146 283 493 330 222 515 490 335 487 96 374 441 548 303 285 494 122 561 35 72 523 154 17 111 559 265 516 332 2 293 443 323 196 225 352 231 71 79 474 446 349 87 164 411 131 160 436 340 417 125 19 341 327 104 114 229 466 186 475 69 406 402 256 284 270 551 465 571 14 456 156 23 6 156 456 23 352 225 217 318 294 182 478 310 398 109 570 484 27 239 401 111 445 56 204 199 170 148 232 483 160 15 190 340 70 465 120 153 165 186 466 69 559 166 265 332 67 6 234 23 348 219 550 80 29 114 262 135 365 516 394 462 452 408 458 319 94 151 434 340 129 139 216 266 94 492 15 340 461 401 239 111 390 32 165 69 206 375 360 237 22 219 409 80 170 37 139 346 380 541 398 430 442 316 195 564 217 253 76 318 380 398 515 430 352 231 225 318 297 206 128 257 348 409 219 80 75 496 51 367 207 539 468 286 271 50 203 441 396 32 390 564 159 479 560 197 37 216 139 266 312 408 452 492 195 390 142 69 309 488 255 48 46 557 113 23 452 492 408 319 215 228 141 221 21 13 540 42 305 195 390 142 142 433 470 475 437 481 482 201 180 451 403 547 37 266 139 346 352 217 76 318 301 568 490 335 312 94 408 492 66 524 118 302 531 5 395 411 2 451 293 323 172 358 247 330 148 170 232 512 41 298 419 355 3 37 170 346 154 354 461 212 296 84 314 364 565 353 196 231 131 386 151 340 375 288 558 237 516 317 394 462 16 558 288 237 311 426 255 48 354 83 491 212 477 272 3 346 182 361 95 89 194 30 26 53 375 414 288 237 546 25 35 323 5 311 395 411 272 359 477 3 127 45 22 500 483 477 3 346 519 96 487 266 390 466 142 69 546 486 188 547 146 493 57 330 215 228 221 58 129 216 487 266 311 255 488 48 196 352 565 231 142 390 305 466 412 245 33 81 470 123 433 142 426 309 255 48 113 513 499 557 359 483 477 3 95 361 476 89 268 82 476 81 491 461 354 212 17 85 523 111 238 482 481 201 534 444 469 181 192 294 478 405 458 489 269 319 486 561 399 373 524 66 118 528 354 154 83 212 458 313 269 489 134 98 241 364 458 269 141 319 251 70 303 291 316 442 331 564 496 1 51 367 87 426 164 411 109 398 541 484 447 165 520 341 313 269 141 458 534 159 560 197 119 251 30 538 435 151 131 386 414 16 288 237 478 182 175 310 317 516 265 332 234 67 261 6 563 234 6 23 454 124 166 332 29 158 180 314 550 65 260 500 102 454 365 332 139 170 115 37 505 191 214 420 37 487 216 266 452 280 228 458 4 40 178 181 415 102 454 365 265 516 289 559 435 131 292 386 434 408 94 492 475 186 470 69 479 24 57 310 329 14 456 156 202 211 527 490 6 329 456 156 253 485 376 318 542 179 363 86 481 370 276 75 435 292 338 386 568 77 205 281 77 568 301 281 473 188 486 547 75 370 276 263 225 353 184 231 289 265 559 166 131 436 292 386 3 115 170 37 382 214 533 420 501 119 30 538 520 124 447 341 324 399 352 318 280 452 408 458 46 468 62 557 396 64 32 564 524 101 535 126 495 101 535 524 546 188 25 323 454 559 365 332 365 454 415 559 211 568 205 335 169 439 187 86 202 211 490 568 358 175 247 330 228 58 452 319 46 113 52 23 466 432 475 186 565 352 246 231 129 271 203 441 293 180 158 314 156 52 113 23 22 409 278 80 488 307 311 48 432 466 165 186 450 309 426 48 435 338 151 386 104 262 114 135 527 222 490 335 519 487 37 266 111 549 308 381 147 495 249 528 523 334 144 549 490 222 424 515 166 168 530 366 65 425 543 45 389 130 33 82 512 170 139 346 130 569 412 268 301 490 424 515 67 46 52 23 486 399 297 373 472 407 263 367 515 281 301 335 550 328 348 80 249 147 528 459 540 349 418 42 542 274 543 187 469 163 368 178 550 219 425 22 368 255 309 488 156 67 52 23 303 70 285 291 154 354 392 461 63 240 448 428 563 234 261 6 502 232 512 148 221 344 215 58 228 458 141 319 480 394 317 462 567 258 507 445 123 433 185 470 475 142 466 69 556 482 238 201 254 219 348 409 169 274 350 363 563 6 456 23 444 9 163 4 350 240 171 337 83 254 354 491 144 83 154 212 3 170 483 346 485 253 225 318 491 422 461 212 131 435 510 151 13 139 129 266 375 558 360 237 477 421 359 272 369 305 195 390 194 97 423 431 28 329 14 456 532 377 521 548 414 526 16 237 76 324 352 318 516 365 559 332 288 509 414 375 426 255 78 311 222 410 18 430 143 384 271 374 205 77 385 281 6 67 156 23 46 62 140 557 248 258 277 275 327 218 243 416 101 397 535 126 214 191 533 420 224 389 322 333 75 276 93 263 265 289 504 166 129 216 143 487 115 216 139 37 452 312 280 408 46 8 52 113 150 176 188 451 176 252 25 2 299 167 447 125 514 421 406 362 339 118 302 66 569 435 292 338 382 151 338 386 160 131 15 340 396 369 344 316 556 448 372 270 17 392 185 239 299 415 102 454 167 432 165 186 107 252 9 336 566 424 222 515 164 78 480 5 496 93 28 407 15 452 190 492 334 523 68 549 313 514 269 489 524 99 495 528 475 142 554 466 141 228 498 458 481 208 370 437 198 516 365 559 21 540 418 42 508 497 24 478 568 490 562 301 6 67 149 156 503 170 483 3 147 249 267 459 150 218 403 473 18 243 566 380 385 339 55 43 221 141 269 319 507 202 211 527 352 196 217 225 423 224 210 471 504 502 173 530 123 195 142 69 390 165 466 69 497 522 57 175 408 489 458 319 505 294 192 405 522 378 146 358 272 37 3 346 413 384 508 192 148 477 483 346 365 462 102 332 168 457 530 366 97 377 371 26 14 156 113 23 46 67 234 23 234 261 11 563 521 8 140 513 15 510 312 94 524 118 99 528 141 498 313 458 208 277 370 437 142 305 554 466 365 415 198 559 170 503 115 3 359 503 483 3 454 166 559 332 149 261 67 6 16 267 288 558 516 198 289 559 99 249 495 528 228 280 498 458 568 562 77 301 11 397 207 537 67 52 149 156 495 535 99 524 498 215 228 141 370 276 208 481 142 554 433 475 490 562 202 568 490 424 562 301 482 208 481 437 516 394 198 365 149 329 6 156 170 232 503 483 554 432 475 466 565 378 196 353 253 509 217 76 404 226 7 387 404 7 226 357 549 307 395 334 549 395 307 39 98 90 355 438 98 355 90 200 557 193 468 62 557 468 193 286 213 91 517 356 213 517 91 105 48 87 39 411 48 39 87 450 355 157 455 41 355 455 157 227 318 375 324 106 318 324 375 76 135 555 29 84 135 29 555 262 335 43 398 281 335 398 43 105 89 247 92 95 89 92 247 383 237 484 213 360 213 484 237 116 366 148 402 457 346 366 402 306 402 366 346 148 291 34 251 70 291 251 34 235 73 90 383 315 73 383 90 92 56 571 201 326 201 571 56 427 440 204 56 199 440 56 204 49 500 542 529 45 500 529 542 112 43 335 55 205 43 55 335 105 91 55 335 205 91 335 55 105 393 137 12 117 12 137 393 552 136 304 61 155 136 61 304 7 366 553 402 242 366 402 553 457 440 153 177 132 440 177 153 133 101 537 286 207 286 537 101 126 76 414 318 253 76 318 414 375 106 414 318 375 318 282 376 273 318 376 282 485 355 172 92 90 484 177 257 116 484 257 177 60 314 323 325 293 325 323 314 59 428 270 571 372 571 270 428 63 381 242 121 0 381 121 242 174 544 121 242 0 544 242 121 174 72 183 283 315 72 283 183 122 355 230 172 298 355 172 230 92 323 107 35 54 323 35 107 25 364 325 59 98 364 59 325 314 229 218 403 327 229 403 218 473 275 437 277 248 275 277 437 370 234 537 286 563 286 537 234 207 414 318 376 106 414 376 318 253 
        </DataArray>
        <DataArray type="Int32" Name="offsets" format="ascii">
          4 8 12 16 20 24 28 32 36 40 44 48 52 56 60 64 68 72 76 80 84 88 92 96 100 104 108 112 116 120 124 128 132 136 140 144 148 152 156 160 164 168 172 176 180 184 188 192 196 200 204 208 212 216 220 224 228 232 236 240 244 248 252 256 260 264 268 272 276 280 284 288 292 296 300 304 308 312 316 320 324 328 332 336 340 344 348 352 356 360 364 368 372 376 380 384 388 392 396 400 404 408 412 416 420 424 428 432 436 440 444 448 452 456 460 464 468 472 476 480 484 488 492 496 500 504 508 512 516 520 524 528 532 536 540 544 548 552 556 560 564 568 572 576 580 584 588 592 596 600 604 608 612 616 620 624 628 632 636 640 644 648 652 656 660 664 668 672 676 680 684 688 692 696 700 704 708 712 716 720 724 728 732 736 740 744 748 752 756 760 764 768 772 776 780 784 788 792 796 800 804 808 812 816 820 824 828 832 836 840 844 848 852 856 860 864 868 872 876 880 884 888 892 896 900 904 908 912 916 920 924 928 932 936 940 944 948 952 956 960 964 968 972 976 980 984 988 992 996 1000 1004 1008 1012 1016 1020 1024 1028 1032 1036 1040 1044 1048 1052 1056 1060 1064 1068 1072 1076 1080 1084 1088 1092 1096 1100 1104 1108 1112 1116 1120 1124 1128 1132 1136 1140 1144 1148 1152 1156 1160 1164 1168 1172 1176 1180 1184 1188 1192 1196 1200 1204 1208 1212 1216 1220 1224 1228 1232 1236 1240 1244 1248 1252 1256 1260 1264 1268 1272 1276 1280 1284 1288 1292 1296 1300 1304 1308 1312 1316 1320 1324 1328 1332 1336 1340 1344 1348 1352 1356 1360 1364 1368 1372 1376 1380 1384 1388 1392 1396 1400 1404 1408 1412 1416 1420 1424 1428 1432 1436 1440 1444 1448 1452 1456 1460 1464 1468 1472 1476 1480 1484 1488 1492 1496 1500 1504 1508 1512 1516 1520 1524 1528 1532 1536 1540 1544 1548 1552 1556 1560 1564 1568 1572 1576 1580 1584 1588 1592 1596 1600 1604 1608 1612 1616 1620 1624 1628 1632 1636 1640 1644 1648 1652 1656 1660 1664 1668 1672 1676 1680 1684 1688 1692 1696 1700 1704 1708 1712 1716 1720 1724 1728 1732 1736 1740 1744 1748 1752 1756 1760 1764 1768 1772 1776 1780 1784 1788 1792 1796 1800 1804 1808 1812 1816 1820 1824 1828 1832 1836 1840 1844 1848 1852 1856 1860 1864 1868 1872 1876 1880 1884 1888 1892 1896 1900 1904 1908 1912 1916 1920 1924 1928 1932 1936 1940 1944 1948 1952 1956 1960 1964 1968 1972 1976 1980 1984 1988 1992 1996 2000 2004 2008 2012 2016 2020 2024 2028 2032 2036 2040 2044 2048 2052 2056 2060 2064 2068 2072 2076 2080 2084 2088 2092 2096 2100 2104 2108 2112 2116 2120 2124 2128 2132 2136 2140 2144 2148 2152 2156 2160 2164 2168 2172 2176 2180 2184 2188 2192 2196 2200 2204 2208 2212 2216 2220 2224 2228 2232 2236 2240 2244 2248 2252 2256 2260 2264 2268 2272 2276 2280 2284 2288 2292 2296 2300 2304 2308 2312 2316 2320 2324 2328 2332 2336 2340 2344 2348 2352 2356 2360 2364 2368 2372 2376 2380 2384 2388 2392 2396 2400 2404 2408 2412 2416 2420 2424 2428 2432 2436 2440 2444 2448 2452 2456 2460 2464 2468 2472 2476 2480 2484 2488 2492 2496 2500 2504 2508 2512 2516 2520 2524 2528 2532 2536 2540 2544 2548 2552 2556 2560 2564 2568 2572 2576 2580 2584 2588 2592 2596 2600 2604 2608 2612 2616 2620 2624 2628 2632 2636 2640 2644 2648 2652 2656 2660 2664 2668 2672 2676 2680 2684 2688 2692 2696 2700 2704 2708 2712 2716 2720 2724 2728 2732 2736 2740 2744 2748 2752 2756 2760 2764 2768 2772 2776 2780 2784 2788 2792 2796 2800 2804 2808 2812 2816 2820 2824 2828 2832 2836 2840 2844 2848 2852 2856 2860 2864 2868 2872 2876 2880 2884 2888 2892 2896 2900 2904 2908 2912 2916 2920 2924 2928 2932 2936 2940 2944 2948 2952 2956 2960 2964 2968 2972 2976 2980 2984 2988 2992 2996 3000 3004 3008 3012 3016 3020 3024 3028 3032 3036 3040 3044 3048 3052 3056 3060 3064 3068 3072 3076 3080 3084 3088 3092 3096 3100 3104 3108 3112 3116 3120 3124 3128 3132 3136 3140 3144 3148 3152 3156 3160 3164 3168 3172 3176 3180 3184 3188 3192 3196 3200 3204 3208 3212 3216 3220 3224 3228 3232 3236 3240 3244 3248 3252 3256 3260 3264 3268 3272 3276 3280 3284 3288 3292 3296 3300 3304 3308 3312 3316 3320 3324 3328 3332 3336 3340 3344 3348 3352 3356 3360 3364 3368 3372 3376 3380 3384 3388 3392 3396 3400 3404 3408 3412 3416 3420 3424 3428 3432 3436 3440 3444 3448 3452 3456 3460 3464 3468 3472 3476 3480 3484 3488 3492 3496 3500 3504 3508 3512 3516 3520 3524 3528 3532 3536 3540 3544 3548 3552 3556 3560 3564 3568 3572 3576 3580 3584 3588 3592 3596 3600 3604 3608 3612 3616 3620 3624 3628 3632 3636 3640 3644 3648 3652 3656 3660 3664 3668 3672 3676 3680 3684 3688 3692 3696 3700 3704 3708 3712 3716 3720 3724 3728 3732 3736 3740 3744 3748 3752 3756 3760 3764 3768 3772 3776 3780 3784 3788 3792 3796 3800 3804 3808 3812 3816 3820 3824 3828 3832 3836 3840 3844 3848 3852 3856 3860 3864 3868 3872 3876 3880 3884 3888 3892 3896 3900 3904 3908 3912 3916 3920 3924 3928 3932 3936 3940 3944 3948 3952 3956 3960 3964 3968 3972 3976 3980 3984 3988 3992 3996 4000 4004 4008 4012 4016 4020 4024 4028 4032 4036 4040 4044 4048 4052 4056 4060 4064 4068 4072 4076 4080 4084 4088 4092 4096 4100 4104 4108 4112 4116 4120 4124 4128 4132 4136 4140 4144 4148 4152 4156 4160 4164 4168 4172 4176 4180 4184 4188 4192 4196 4200 4204 4208 4212 4216 4220 4224 4228 4232 4236 4240 4244 4248 4252 4256 4260 4264 4268 4272 4276 4280 4284 4288 4292 4296 4300 4304 4308 4312 4316 4320 4324 4328 4332 4336 4340 4344 4348 4352 4356 4360 4364 4368 4372 4376 4380 4384 4388 4392 4396 4400 4404 4408 4412 4416 4420 4424 4428 4432 4436 4440 4444 4448 4452 4456 4460 4464 4468 4472 4476 4480 4484 4488 4492 4496 4500 4504 4508 4512 4516 4520 4524 4528 4532 4536 4540 4544 4548 4552 4556 4560 4564 4568 4572 4576 4580 4584 4588 4592 4596 4600 4604 4608 4612 4616 4620 4624 4628 4632 4636 4640 4644 4648 4652 4656 4660 4664 4668 4672 4676 4680 4684 4688 4692 4696 4700 4704 4708 4712 4716 4720 4724 4728 4732 4736 4740 4744 4748 4752 4756 4760 4764 4768 4772 4776 4780 4784 4788 4792 4796 4800 4804 4808 4812 4816 4820 4824 4828 4832 4836 4840 4844 4848 4852 4856 4860 4864 4868 4872 4876 4880 4884 4888 4892 4896 4900 4904 4908 4912 4916 4920 4924 4928 4932 4936 4940 4944 4948 4952 4956 4960 4964 4968 4972 4976 4980 4984 4988 4992 4996 5000 5004 5008 5012 5016 5020 5024 5028 5032 5036 5040 5044 5048 5052 5056 5060 5064 5068 5072 5076 5080 5084 5088 5092 5096 5100 5104 5108 5112 5116 5120 5124 5128 5132 5136 5140 5144 5148 5152 5156 5160 5164 5168 5172 5176 5180 5184 5188 5192 5196 5200 5204 5208 5212 5216 5220 5224 5228 5232 5236 5240 5244 5248 5252 5256 5260 5264 5268 5272 5276 5280 5284 5288 5292 5296 5300 5304 5308 5312 5316 5320 5324 5328 5332 5336 5340 5344 5348 5352 5356 5360 5364 5368 5372 5376 5380 5384 5388 5392 5396 5400 5404 5408 5412 5416 5420 5424 5428 5432 5436 5440 5444 5448 5452 5456 5460 5464 5468 5472 5476 5480 5484 5488 5492 5496 5500 5504 5508 5512 5516 5520 5524 5528 5532 5536 5540 5544 5548 5552 5556 5560 5564 5568 5572 5576 5580 5584 5588 5592 5596 5600 5604 5608 5612 5616 5620 5624 5628 5632 5636 5640 5644 5648 5652 5656 5660 5664 5668 5672 5676 5680 5684 5688 5692 5696 5700 5704 5708 5712 5716 5720 5724 5728 5732 5736 5740 5744 5748 5752 5756 5760 5764 5768 5772 5776 5780 5784 5788 5792 5796 5800 5804 5808 5812 5816 5820 5824 5828 5832 5836 5840 5844 5848 5852 5856 5860 5864 5868 5872 5876 5880 5884 5888 5892 5896 5900 5904 5908 5912 5916 5920 5924 5928 5932 5936 5940 5944 5948 5952 5956 5960 5964 5968 5972 5976 5980 5984 5988 5992 5996 6000 6004 6008 6012 6016 6020 6024 6028 6032 6036 6040 6044 6048 6052 6056 6060 6064 6068 6072 6076 6080 6084 6088 6092 6096 6100 6104 6108 6112 6116 6120 6124 6128 6132 6136 6140 6144 6148 6152 6156 6160 6164 6168 6172 6176 6180 6184 6188 6192 6196 6200 6204 6208 6212 6216 6220 6224 6228 6232 6236 6240 6244 6248 6252 6256 6260 6264 6268 6272 6276 6280 6284 6288 6292 6296 6300 6304 6308 6312 6316 6320 6324 6328 6332 6336 6340 6344 6348 6352 6356 6360 6364 6368 6372 6376 6380 6384 6388 6392 6396 6400 6404 6408 6412 6416 6420 6424 6428 6432 6436 6440 6444 6448 6452 6456 6460 6464 6468 6472 6476 6480 6484 6488 6492 6496 6500 6504 6508 6512 6516 6520 6524 6528 6532 6536 6540 6544 6548 6552 6556 6560 6564 6568 6572 6576 6580 6584 6588 6592 6596 6600 6604 6608 6612 6616 6620 6624 6628 6632 6636 6640 6644 6648 6652 6656 6660 6664 6668 6672 6676 6680 6684 6688 6692 6696 6700 6704 6708 6712 6716 6720 6724 6728 6732 6736 6740 6744 6748 6752 6756 6760 6764 6768 6772 6776 6780 6784 6788 6792 6796 6800 6804 6808 6812 6816 6820 6824 6828 6832 6836 6840 6844 6848 6852 6856 6860 6864 6868 6872 6876 6880 6884 6888 6892 6896 6900 6904 6908 6912 6916 6920 6924 6928 6932 6936 6940 6944 6948 6952 6956 6960 6964 6968 6972 6976 6980 6984 6988 6992 6996 7000 7004 7008 7012 7016 7020 7024 7028 7032 7036 7040 7044 7048 7052 7056 7060 7064 7068 7072 7076 7080 7084 7088 7092 7096 7100 7104 7108 7112 7116 7120 7124 7128 7132 7136 7140 7144 7148 7152 7156 7160 7164 7168 7172 7176 7180 7184 7188 7192 7196 7200 7204 7208 7212 7216 7220 7224 7228 7232 7236 7240 7244 7248 7252 7256 7260 7264 7268 7272 7276 7280 7284 7288 7292 7296 7300 7304 7308 7312 7316 7320 7324 7328 7332 7336 7340 7344 7348 7352 7356 7360 7364 7368 7372 7376 7380 7384 7388 7392 7396 7400 7404 7408 7412 7416 7420 7424 7428 7432 7436 7440 7444 7448 7452 7456 7460 7464 7468 7472 7476 7480 7484 7488 7492 7496 7500 7504 7508 7512 7516 7520 7524 7528 7532 7536 7540 7544 7548 7552 7556 7560 7564 7568 7572 7576 7580 7584 7588 7592 7596 7600 7604 7608 7612 7616 7620 7624 7628 7632 7636 7640 7644 7648 7652 7656 7660 7664 7668 7672 7676 7680 7684 7688 7692 7696 7700 7704 7708 7712 7716 7720 7724 7728 7732 7736 7740 7744 7748 7752 7756 7760 7764 7768 7772 7776 7780 7784 7788 7792 7796 7800 7804 7808 7812 7816 7820 7824 7828 7832 7836 7840 7844 7848 7852 7856 7860 7864 7868 7872 7876 7880 7884 7888 7892 7896 7900 7904 7908 7912 7916 7920 7924 7928 7932 7936 7940 7944 7948 7952 7956 7960 7964 7968 7972 7976 7980 7984 7988 7992 7996 8000 8004 8008 8012 8016 8020 8024 8028 8032 8036 
        </DataArray>
        <DataArray type="UInt8" Name="types" format="ascii">
          10 10 10 10 10 10 10 10 10 10 10 10 10 10 10 10 10 10 10 10 10 10 10 10 10 10 10 10 10 10 10 10 10 10 10 10 10 10 10 10 10 10 10 10 10 10 10 10 10 10 10 10 10 10 10 10 10 10 10 10 10 10 10 10 10 10 10 10 10 10 10 10 10 10 10 10 10 10 10 10 10 10 10 10 10 10 10 10 10 10 10 10 10 10 10 10 10 10 10 10 10 10 10 10 10 10 10 10 10 10 10 10 10 10 10 10 10 10 10 10 10 10 10 10 10 10 10 10 10 10 10 10 10 10 10 10 10 10 10 10 10 10 10 10 10 10 10 10 10 10 10 10 10 10 10 10 10 10 10 10 10 10 10 10 10 10 10 10 10 10 10 10 10 10 10 10 10 10 10 10 10 10 10 10 10 10 10 10 10 10 10 10 10 10 10 10 10 10 10 10 10 10 10 10 10 10 10 10 10 10 10 10 10 10 10 10 10 10 10 10 10 10 10 10 10 10 10 10 10 10 10 10 10 10 10 10 10 10 10 10 10 10 10 10 10 10 10 10 10 10 10 10 10 10 10 10 10 10 10 10 10 10 10 10 10 10 10 10 10 10 10 10 10 10 10 10 10 10 10 10 10 10 10 10 10 10 10 10 10 10 10 10 10 10 10 10 10 10 10 10 10 10 10 10 10 10 10 10 10 10 10 10 10 10 10 10 10 10 10 10 10 10 10 10 10 10 10 10 10 10 10 10 10 10 10 10 10 10 10 10 10 10 10 10 10 10 10 10 10 10 10 10 10 10 10 10 10 10 10 10 10 10 10 10 10 10 10 10 10 10 10 10 10 10 10 10 10 10 10 10 10 10 10 10 10 10 10 10 10 10 10 10 10 10 10 10 10 10 10 10 10 10 10 10 10 10 10 10 10 10 10 10 10 10 10 10 10 10 10 10 10 10 10 10 10 10 10 10 10 10 10 10 10 10 10 10 10 10 10 10 10 10 10 10 10 10 10 10 10 10 10 10 10 10 10 10 10 10 10 10 10 10 10 10 10 10 10 10 10 10 10 10 10 10 10 10 10 10 10 10 10 10 10 10 10 10 10 10 10 10 10 10 10 10 10 10 10 10 10 10 10 10 10 10 10 10 10 10 10 10 10 10 10 10 10 10 10 10 10 10 10 10 10 10 10 10 10 10 10 10 10 10 10 10 10 10 10 10 10 10 10 10 10 10 10 10 10 10 10 10 10 10 10 10 10 10 10 10 10 10 10 10 10 10 10 10 10 10 10 10 10 10 10 10 10 10 10 10 10 10 10 10 10 10 10 10 10 10 10 10 10 10 10 10 10 10 10 10 10 10 10 10 10 10 10 10 10 10 10 10 10 10 10 10 10 10 10 10 10 10 10 10 10 10 10 10 10 10 10 10 10 10 10 10 10 10 10 10 10 10 10 10 10 10 10 10 10 10 10 10 10 10 10 10 10 10 10 10 10 10 10 10 10 10 10 10 10 10 10 10 10 10 10 10 10 10 10 10 10 10 10 10 10 10 10 10 10 10 10 10 10 10 10 10 10 10 10 10 10 10 10 10 10 10 10 10 10 10 10 10 10 10 10 10 10 10 10 10 10 10 10 10 10 10 10 10 10 10 10 10 10 10 10 10 10 10 10 10 10 10 10 10 10 10 10 10 10 10 10 10 10 10 10 10 10 10 10 10 10 10 10 10 10 10 10 10 10 10 10 10 10 10 10 10 10 10 10 10 10 10 10 10 10 10 10 10 10 10 10 10 10 10 10 10 10 10 10 10 10 10 10 10 10 10 10 10 10 10 10 10 10 10 10 10 10 10 10 10 10 10 10 10 10 10 10 10 10 10 10 10 10 10 10 10 10 10 10 10 10 10 10 10 10 10 10 10 10 10 10 10 10 10 10 10 10 10 10 10 10 10 10 10 10 10 10 10 10 10 10 10 10 10 10 10 10 10 10 10 10 10 10 10 10 10 10 10 10 10 10 10 10 10 10 10 10 10 10 10 10 10 10 10 10 10 10 10 10 10 10 10 10 10 10 10 10 10 10 10 10 10 10 10 10 10 10 10 10 10 10 10 10 10 10 10 10 10 10 10 10 10 10 10 10 10 10 10 10 10 10 10 10 10 10 10 10 10 10 10 10 10 10 10 10 10 10 10 10 10 10 10 10 10 10 10 10 10 10 10 10 10 10 10 10 10 10 10 10 10 10 10 10 10 10 10 10 10 10 10 10 10 10 10 10 10 10 10 10 10 10 10 10 10 10 10 10 10 10 10 10 10 10 10 10 10 10 10 10 10 10 10 10 10 10 10 10 10 10 10 10 10 10 10 10 10 10 10 10 10 10 10 10 10 10 10 10 10 10 10 10 10 10 10 10 10 10 10 10 10 10 10 10 10 10 10 10 10 10 10 10 10 10 10 10 10 10 10 10 10 10 10 10 10 10 10 10 10 10 10 10 10 10 10 10 10 10 10 10 10 10 10 10 10 10 10 10 10 10 10 10 10 10 10 10 10 10 10 10 10 10 10 10 10 10 10 10 10 10 10 10 10 10 10 10 10 10 10 10 10 10 10 10 10 10 10 10 10 10 10 10 10 10 10 10 10 10 10 10 10 10 10 10 10 10 10 10 10 10 10 10 10 10 10 10 10 10 10 10 10 10 10 10 10 10 10 10 10 10 10 10 10 10 10 10 10 10 10 10 10 10 10 10 10 10 10 10 10 10 10 10 10 10 10 10 10 10 10 10 10 10 10 10 10 10 10 10 10 10 10 10 10 10 10 10 10 10 10 10 10 10 10 10 10 10 10 10 10 10 10 10 10 10 10 10 10 10 10 10 10 10 10 10 10 10 10 10 10 10 10 10 10 10 10 10 10 10 10 10 10 10 10 10 10 10 10 10 10 10 10 10 10 10 10 10 10 10 10 10 10 10 10 10 10 10 10 10 10 10 10 10 10 10 10 10 10 10 10 10 10 10 10 10 10 10 10 10 10 10 10 10 10 10 10 10 10 10 10 10 10 10 10 10 10 10 10 10 10 10 10 10 10 10 10 10 10 10 10 10 10 10 10 10 10 10 10 10 10 10 10 10 10 10 10 10 10 10 10 10 10 10 10 10 10 10 10 10 10 10 10 10 10 10 10 10 10 10 10 10 10 10 10 10 10 10 10 10 10 10 10 10 10 10 10 10 10 10 10 10 10 10 10 10 10 10 10 10 10 10 10 10 10 10 10 10 10 10 10 10 10 10 10 10 10 10 10 10 10 10 10 10 10 10 10 10 10 10 10 10 10 10 10 10 10 10 10 10 10 10 10 10 10 10 10 10 10 10 10 10 10 10 10 10 10 10 10 10 10 10 10 10 10 10 10 10 10 10 10 10 10 10 10 10 10 10 10 10 10 10 10 10 10 10 10 10 10 10 10 10 10 10 10 10 10 10 10 10 10 10 10 10 10 10 10 10 10 10 10 10 10 10 10 10 10 10 10 10 10 10 10 10 10 10 10 10 10 10 10 10 10 10 10 10 10 10 10 10 10 10 10 10 10 10 10 10 10 10 10 10 10 10 10 10 10 10 10 10 10 10 10 10 10 10 10 10 10 10 10 10 10 10 10 10 10 10 10 10 10 10 10 10 10 10 10 10 10 10 10 10 10 10 10 10 10 10 10 10 10 10 10 10 10 10 10 10 10 10 10 10 10 10 10 10 10 10 10 10 10 10 10 10 10 10 10 10 10 10 10 10 10 10 10 10 10 10 10 10 10 10 10 10 10 10 10 10 10 10 10 10 10 10 10 10 10 10 10 10 10 10 10 10 10 10 10 10 10 10 10 10 10 10 10 10 10 10 10 10 10 10 10 10 10 10 10 10 10 10 10 10 10 10 10 10 10 10 10 10 10 10 10 10 10 10 10 10 10 10 10 10 10 10 10 10 10 10 10 10 10 10 10 10 10 10 10 10 10 10 10 10 10 10 10 10 10 10 10 10 10 10 10 10 10 10 10 10 10 10 10 10 10 10 10 10 10 10 10 10 10 10 10 10 10 10 10 10 10 10 10 10 10 10 10 10 10 10 10 10 10 10 10 10 10 10 10 10 10 10 10 10 10 10 10 10 10 10 10 10 10 10 10 10 10 10 10 10 10 10 10 10 10 10 10 10 10 10 10 10 10 10 10 10 10 10 10 10 10 10 10 10 10 10 10 10 10 10 10 10 10 10 10 10 10 10 10 10 10 10 10 10 10 10 10 10 10 10 10 10 10 10 10 10 10 10 10 10 10 10 10 10 10 10 10 10 10 10 10 10 10 10 10 10 10 10 10 10 10 10 10 10 10 10 10 10 10 10 10 10 10 10 10 10 10 10 10 10 10 10 10 10 10 10 10 10 10 10 10 10 10 10 10 10 10 10 10 10 10 10 10 10 10 10 10 10 10 10 10 10 10 10 10 10 10 10 10 10 10 10 10 10 10 10 10 10 10 10 10 10 10 10 10 10 10 10 10 10 10 10 10 10 10 10 
        </DataArray>
      </Cells>
      <PointData Scalars="value">
        <DataArray type="Float64" Name="value" format="ascii">
          301.907568 300.000000 300.000000 302.196110 300.000000 300.000000 302.581942 303.371554 300.000000 300.000000 307.143503 305.855864 303.090754 304.600471 300.000000 300.000000 308.637637 300.000000 300.000000 300.000000 306.753680 303.537463 300.000000 303.249635 307.850454 302.931383 300.000000 300.000000 300.000000 300.000000 300.000000 302.697618 300.000000 300.000000 300.000000 305.444885 304.388959 303.973672 300.000000 304.122394 300.000000 306.593084 303.816862 306.943602 306.050647 300.000000 303.174269 300.000000 302.784360 300.000000 306.599047 300.000000 300.000000 303.360893 304.173557 306.822531 300.000000 308.142116 300.000000 304.747141 304.752982 300.000000 304.838498 300.000000 300.000000 300.000000 308.115364 302.607212 300.000000 300.890417 300.000000 307.587177 306.518090 305.668226 306.046445 300.000000 308.638008 303.430869 300.000000 306.705360 301.469530 303.253067 302.928772 300.000000 303.263303 300.000000 301.647393 303.961770 300.000000 306.351338 307.479973 306.060464 306.436917 300.000000 301.707163 306.638280 305.504878 300.000000 305.171272 308.764106 305.447583 308.180624 300.000000 302.460089 300.000000 305.830051 307.680156 302.949036 300.000000 306.862097 304.613063 301.418280 302.629409 300.000000 300.000000 302.921896 307.183535 304.798603 308.446266 300.000000 300.000000 302.601398 306.966967 300.000000 300.000000 300.000000 307.813527 300.000000 305.984525 305.615092 300.000000 300.000000 304.293240 302.880334 305.401606 302.961097 303.057789 304.658848 300.000000 303.977459 302.386057 300.000000 300.000000 306.344403 300.000000 304.171437 308.311419 308.626725 300.000000 300.000000 300.000000 302.688240 304.061938 303.081146 300.000000 300.000000 300.000000 305.840810 300.000000 306.434999 300.000000 300.000000 303.257314 300.000000 302.093122 300.000000 300.000000 300.000000 300.000000 300.000000 302.228831 300.000000 307.992486 302.071325 303.877925 308.157347 300.000000 305.559631 300.000000 300.000000 300.000000 303.262588 307.521382 306.742000 307.955335 300.000000 300.000000 300.000000 302.894208 304.766649 300.000000 305.987817 307.412702 306.997624 300.000000 300.000000 308.717871 306.250155 300.000000 303.384184 307.132059 300.000000 300.000000 305.715748 300.000000 304.779092 307.642696 306.799828 300.000000 305.223932 300.000000 302.663476 301.326871 307.789673 305.980336 300.000000 304.967029 308.740991 300.000000 300.000000 304.097203 300.000000 300.000000 305.533014 300.000000 308.543000 300.000000 304.803736 300.000000 303.551958 306.890987 308.160846 300.000000 305.523245 304.931267 303.195224 304.525677 308.323793 300.000000 300.000000 300.000000 303.746695 302.480084 300.000000 303.080710 300.000000 307.892716 307.757936 300.000000 308.733378 304.102885 300.000000 300.000000 308.550167 300.000000 300.000000 300.000000 306.514861 300.000000 300.000000 300.000000 303.447223 300.000000 302.048011 305.005471 301.623968 304.784782 308.741635 302.809885 300.000000 300.000000 306.703039 302.390690 306.765259 300.000000 301.848249 300.000000 300.000000 300.000000 304.655271 300.000000 304.790243 307.446634 307.862193 302.780330 300.000000 306.637860 305.037722 308.826603 300.000000 300.000000 302.889097 300.000000 300.000000 307.192770 302.608941 304.482582 306.796933 307.105534 300.000000 301.809486 302.600721 307.881922 300.000000 300.000000 300.000000 303.572431 300.000000 302.846605 302.703599 307.678850 300.000000 300.000000 300.000000 302.778212 306.453382 300.000000 301.868089 308.283023 301.427398 303.672204 300.000000 300.000000 303.388610 308.163870 302.967872 300.000000 300.000000 300.000000 300.000000 307.975622 300.000000 301.260539 302.963456 300.000000 303.749471 300.000000 300.000000 302.722277 307.541993 302.273455 301.398394 304.824534 303.057144 300.000000 305.132883 302.694922 300.000000 300.000000 303.249724 300.000000 305.757728 308.464251 308.511744 300.000000 306.590094 306.993324 304.802755 308.356037 300.000000 308.187784 306.405509 302.194707 300.000000 304.991971 300.000000 302.146860 302.862653 300.000000 300.000000 301.030846 302.408070 300.000000 306.640771 306.599622 308.592856 307.978747 300.000000 308.519088 300.000000 303.134744 302.746534 304.394403 307.060395 307.162005 305.906869 302.795010 300.000000 304.942077 300.000000 300.000000 304.886500 300.000000 303.390088 300.000000 300.000000 300.000000 307.514901 305.664153 307.631293 300.000000 300.000000 300.000000 300.000000 303.031306 307.090166 300.000000 302.434019 301.746856 300.000000 300.000000 302.785065 300.000000 307.334099 308.538708 300.000000 303.505313 300.000000 302.999257 305.525957 305.572719 300.000000 300.000000 300.000000 300.000000 300.000000 302.419098 302.291002 300.000000 300.000000 303.390561 303.234698 300.000000 300.000000 303.366162 300.000000 300.000000 300.000000 305.452606 300.000000 303.083095 306.098113 300.000000 300.000000 302.932605 300.000000 306.748849 300.000000 300.000000 304.864542 304.428732 300.000000 300.000000 306.013621 300.000000 304.962622 302.801959 300.000000 300.973315 308.595045 300.000000 300.000000 300.000000 306.497813 304.765531 300.000000 300.000000 305.216455 305.955858 302.822019 300.000000 302.959884 303.742808 302.989548 305.845575 300.000000 305.024934 300.000000 307.845447 307.515993 300.000000 300.000000 300.000000 300.000000 306.561933 308.133288 305.482700 305.488329 300.000000 301.613640 300.000000 300.000000 301.989838 307.741504 303.466261 308.657331 300.000000 308.194034 300.000000 300.000000 301.510844 300.000000 300.000000 300.000000 300.000000 306.798254 303.677872 300.000000 307.733481 308.713460 300.000000 300.000000 302.672902 300.000000 300.000000 302.961052 300.972385 305.695136 300.000000 304.252640 300.000000 300.000000 308.438750 300.000000 308.469468 304.051806 308.042475 300.000000 308.649242 300.000000 300.000000 300.000000 303.156389 304.780919 305.029693 308.465244 300.000000 306.784926 302.773927 307.867259 304.424337 305.269623 300.000000 300.000000 302.335723 300.000000 304.866734 303.444159 300.000000 301.931469 300.000000 300.000000 303.127440 300.000000 300.000000 300.000000 300.000000 303.643189 308.672110 300.000000 306.627239 306.551824 300.000000 304.849583 301.324966 308.483647 300.000000 302.488411 302.584990 300.000000 307.655337 302.022442 
        </DataArray>
      </PointData>
    </Piece>
  </UnstructuredGrid>
</VTKFile>
